{"asset":{"version":"2.0","generator":"THREE.GLTFExporter r175"},"scenes":[{"name":"AuxScene","nodes":[3]}],"scene":0,"nodes":[{"name":"Butterfly_Tracker_Enclosure_simplified_1","mesh":0},{"name":"Butterfly_Tracker_Enclosure_simplified_2","mesh":1},{"matrix":[-0.007811995223164558,0,6.829463129877759e-10,0,0,0.007811995223164558,0,0,-6.829463129877759e-10,0,-0.007811995223164558,0,0,0,0,1],"name":"Butterfly_Tracker_Enclosure_simplified","extras":{"name":"Butterfly_Tracker_Enclosure_simplified"},"children":[0,1]},{"name":"Scene","children":[2]}],"bufferViews":[{"buffer":0,"byteOffset":0,"byteLength":6264,"target":34962,"byteStride":12},{"buffer":0,"byteOffset":6264,"byteLength":6264,"target":34962,"byteStride":12},{"buffer":0,"byteOffset":12528,"byteLength":4632,"target":34963},{"buffer":0,"byteOffset":17160,"byteLength":2376,"target":34962,"byteStride":12},{"buffer":0,"byteOffset":19536,"byteLength":2376,"target":34962,"byteStride":12},{"buffer":0,"byteOffset":21912,"byteLength":2256,"target":34963}],"buffers":[{"byteLength":24168,"uri":"data:application/octet-stream;base64,"}],"accessors":[{"bufferView":0,"componentType":5126,"count":522,"max":[17.571449279785156,2.8736557960510254,10.974367141723633],"min":[-17.571449279785156,-2.86672043800354,-44.02436828613281],"type":"VEC3"},{"bufferView":1,"componentType":5126,"count":522,"max":[0.9999986886978149,0.9704320430755615,0.9893695712089539],"min":[-0.9999986886978149,-0.9591352939605713,-0.9893695712089539],"type":"VEC3"},{"bufferView":2,"componentType":5123,"count":2316,"max":[521],"min":[0],"type":"SCALAR"},{"bufferView":3,"componentType":5126,"count":198,"max":[14.886968612670898,2.2176363468170166,-8.26647663116455],"min":[-14.77835750579834,-1.4023200273513794,-24.783527374267578],"type":"VEC3"},{"bufferView":4,"componentType":5126,"count":198,"max":[0.9247836470603943,0.9967737197875977,0.9999948740005493],"min":[-0.9152654409408569,-0.9252310991287231,-0.9999101161956787],"type":"VEC3"},{"bufferView":5,"componentType":5123,"count":1128,"max":[197],"min":[0],"type":"SCALAR"}],"materials":[{"pbrMetallicRoughness":{"baseColorFactor":[0.6968905329704285,0.00031615045736543834,0.8000156879425049,1],"metallicFactor":0,"roughnessFactor":0.5},"doubleSided":true,"name":"Material.002"},{"pbrMetallicRoughness":{"baseColorFactor":[0,0,0,1],"metallicFactor":0,"roughnessFactor":0.5},"doubleSided":true,"name":"Material.003"}],"meshes":[{"primitives":[{"mode":4,"attributes":{"POSITION":0,"NORMAL":1},"indices":2,"material":0}]},{"primitives":[{"mode":4,"attributes":{"POSITION":3,"NORMAL":4},"indices":5,"material":1}]}]}