<?xml version="1.0" encoding="UTF-8" standalone="no"?>
<!DOCTYPE svg PUBLIC "-//W3C//DTD SVG 1.1//EN"
 "http://www.w3.org/Graphics/SVG/1.1/DTD/svg11.dtd">
<!-- Generated by graphviz version 12.2.1 (0)
 -->
<!-- Title: module_architecture Pages: 1 -->
<svg width="1218pt" height="585pt"
 viewBox="0.00 0.00 1218.00 584.68" xmlns="http://www.w3.org/2000/svg" xmlns:xlink="http://www.w3.org/1999/xlink">
<g id="graph0" class="graph" transform="scale(1 1) rotate(0) translate(4 580.68)">
<title>module_architecture</title>
<polygon fill="white" stroke="none" points="-4,4 -4,-580.68 1214,-580.68 1214,4 -4,4"/>
<g id="clust1" class="cluster">
<title>cluster_A</title>
<path fill="#fafafa" stroke="#999999" stroke-width="1.5" d="M20,-8C20,-8 705,-8 705,-8 711,-8 717,-14 717,-20 717,-20 717,-477.76 717,-477.76 717,-483.76 711,-489.76 705,-489.76 705,-489.76 20,-489.76 20,-489.76 14,-489.76 8,-483.76 8,-477.76 8,-477.76 8,-20 8,-20 8,-14 14,-8 20,-8"/>
<text text-anchor="middle" x="362.5" y="-472.46" font-family="monospace" font-size="14.00">Module A</text>
</g>
<g id="clust2" class="cluster">
<title>cluster_A_beh</title>
<polygon fill="#fffff8" stroke="#aaaaaa" stroke-width="1.5" stroke-dasharray="5,2" points="16,-278.46 16,-456.51 709,-456.51 709,-278.46 16,-278.46"/>
<text text-anchor="middle" x="362.5" y="-439.21" font-family="monospace" font-size="14.00">Behaviours</text>
</g>
<g id="clust3" class="cluster">
<title>cluster_B</title>
<path fill="#fafafa" stroke="#999999" stroke-width="1.5" d="M755,-8C755,-8 947,-8 947,-8 953,-8 959,-14 959,-20 959,-20 959,-471.01 959,-471.01 959,-477.01 953,-483.01 947,-483.01 947,-483.01 755,-483.01 755,-483.01 749,-483.01 743,-477.01 743,-471.01 743,-471.01 743,-20 743,-20 743,-14 749,-8 755,-8"/>
<text text-anchor="middle" x="851" y="-465.71" font-family="monospace" font-size="14.00">Module B</text>
</g>
<g id="clust4" class="cluster">
<title>cluster_B_beh</title>
<polygon fill="#fffff8" stroke="#aaaaaa" stroke-width="1.5" stroke-dasharray="5,2" points="751,-285.21 751,-449.76 951,-449.76 951,-285.21 751,-285.21"/>
<text text-anchor="middle" x="851" y="-432.46" font-family="monospace" font-size="14.00">Behaviours</text>
</g>
<g id="clust5" class="cluster">
<title>cluster_C</title>
<path fill="#fafafa" stroke="#999999" stroke-width="1.5" d="M998,-8C998,-8 1190,-8 1190,-8 1196,-8 1202,-14 1202,-20 1202,-20 1202,-471.01 1202,-471.01 1202,-477.01 1196,-483.01 1190,-483.01 1190,-483.01 998,-483.01 998,-483.01 992,-483.01 986,-477.01 986,-471.01 986,-471.01 986,-20 986,-20 986,-14 992,-8 998,-8"/>
<text text-anchor="middle" x="1094" y="-465.71" font-family="monospace" font-size="14.00">Module C</text>
</g>
<g id="clust6" class="cluster">
<title>cluster_C_beh</title>
<polygon fill="#fffff8" stroke="#aaaaaa" stroke-width="1.5" stroke-dasharray="5,2" points="994,-285.21 994,-449.76 1194,-449.76 1194,-285.21 994,-285.21"/>
<text text-anchor="middle" x="1094" y="-432.46" font-family="monospace" font-size="14.00">Behaviours</text>
</g>
<!-- ext -->
<g id="node1" class="node">
<title>ext</title>
<ellipse fill="#dae8fc" stroke="#6c8ebf" cx="605" cy="-537.22" rx="126.01" ry="39.46"/>
<text text-anchor="middle" x="605" y="-540.27" font-family="monospace" font-size="11.00">external events</text>
<text text-anchor="middle" x="605" y="-526.77" font-family="monospace" font-size="11.00">(packets · messages)</text>
</g>
<!-- bA1 -->
<g id="node2" class="node">
<title>bA1</title>
<path fill="#fff9db" stroke="#d6ae00" d="M688.85,-423.26C688.85,-423.26 521.15,-423.26 521.15,-423.26 515.15,-423.26 509.15,-417.26 509.15,-411.26 509.15,-411.26 509.15,-298.46 509.15,-298.46 509.15,-292.46 515.15,-286.46 521.15,-286.46 521.15,-286.46 688.85,-286.46 688.85,-286.46 694.85,-286.46 700.85,-292.46 700.85,-298.46 700.85,-298.46 700.85,-411.26 700.85,-411.26 700.85,-417.26 694.85,-423.26 688.85,-423.26"/>
<text text-anchor="middle" x="605" y="-398.41" font-family="monospace" font-size="11.00">BehaviourA1</text>
<text text-anchor="middle" x="605" y="-384.91" font-family="monospace" font-size="11.00">────────────────────</text>
<text text-anchor="middle" x="605" y="-371.41" font-family="monospace" font-size="11.00">observe(receiver)</text>
<text text-anchor="middle" x="605" y="-357.91" font-family="monospace" font-size="11.00"> &#160;subscribes to flows</text>
<text text-anchor="middle" x="605" y="-344.41" font-family="monospace" font-size="11.00"> &#160;calls dispatch()</text>
<text text-anchor="middle" x="605" y="-330.91" font-family="monospace" font-size="11.00">────────────────────</text>
<text text-anchor="middle" x="605" y="-317.41" font-family="monospace" font-size="11.00">reduce(state, action)</text>
<text text-anchor="middle" x="605" y="-303.91" font-family="monospace" font-size="11.00"> &#160;pure: State &#45;&gt; State</text>
</g>
<!-- ext&#45;&gt;bA1 -->
<g id="edge1" class="edge">
<title>ext&#45;&gt;bA1</title>
<path fill="none" stroke="#6c8ebf" d="M605,-497.53C605,-479.19 605,-456.59 605,-434.87"/>
<polygon fill="#6c8ebf" stroke="#6c8ebf" points="608.5,-435.13 605,-425.13 601.5,-435.13 608.5,-435.13"/>
</g>
<!-- bA2 -->
<g id="node3" class="node">
<title>bA2</title>
<path fill="#fff9db" stroke="#d6ae00" d="M196.47,-416.51C196.47,-416.51 35.53,-416.51 35.53,-416.51 29.53,-416.51 23.53,-410.51 23.53,-404.51 23.53,-404.51 23.53,-305.21 23.53,-305.21 23.53,-299.21 29.53,-293.21 35.53,-293.21 35.53,-293.21 196.47,-293.21 196.47,-293.21 202.47,-293.21 208.47,-299.21 208.47,-305.21 208.47,-305.21 208.47,-404.51 208.47,-404.51 208.47,-410.51 202.47,-416.51 196.47,-416.51"/>
<text text-anchor="middle" x="116" y="-391.66" font-family="monospace" font-size="11.00">BehaviourA2</text>
<text text-anchor="middle" x="116" y="-378.16" font-family="monospace" font-size="11.00">────────────────────</text>
<text text-anchor="middle" x="116" y="-364.66" font-family="monospace" font-size="11.00">observe(receiver)</text>
<text text-anchor="middle" x="116" y="-351.16" font-family="monospace" font-size="11.00"> &#160;...</text>
<text text-anchor="middle" x="116" y="-337.66" font-family="monospace" font-size="11.00">────────────────────</text>
<text text-anchor="middle" x="116" y="-324.16" font-family="monospace" font-size="11.00">reduce(state, action)</text>
<text text-anchor="middle" x="116" y="-310.66" font-family="monospace" font-size="11.00"> &#160;...</text>
</g>
<!-- ext&#45;&gt;bA2 -->
<g id="edge2" class="edge">
<title>ext&#45;&gt;bA2</title>
<path fill="none" stroke="#6c8ebf" d="M524.53,-506.54C441.07,-475.76 310.31,-427.53 219.28,-393.96"/>
<polygon fill="#6c8ebf" stroke="#6c8ebf" points="220.67,-390.74 210.08,-390.56 218.25,-397.31 220.67,-390.74"/>
</g>
<!-- bAmore -->
<g id="node4" class="node">
<title>bAmore</title>
<path fill="#fff9db" stroke="#d6ae00" d="M439.48,-416.51C439.48,-416.51 278.52,-416.51 278.52,-416.51 272.52,-416.51 266.52,-410.51 266.52,-404.51 266.52,-404.51 266.52,-305.21 266.52,-305.21 266.52,-299.21 272.52,-293.21 278.52,-293.21 278.52,-293.21 439.48,-293.21 439.48,-293.21 445.48,-293.21 451.48,-299.21 451.48,-305.21 451.48,-305.21 451.48,-404.51 451.48,-404.51 451.48,-410.51 445.48,-416.51 439.48,-416.51"/>
<text text-anchor="middle" x="359" y="-391.66" font-family="monospace" font-size="11.00">···</text>
<text text-anchor="middle" x="359" y="-378.16" font-family="monospace" font-size="11.00">────────────────────</text>
<text text-anchor="middle" x="359" y="-364.66" font-family="monospace" font-size="11.00">observe(receiver)</text>
<text text-anchor="middle" x="359" y="-351.16" font-family="monospace" font-size="11.00"> &#160;...</text>
<text text-anchor="middle" x="359" y="-337.66" font-family="monospace" font-size="11.00">────────────────────</text>
<text text-anchor="middle" x="359" y="-324.16" font-family="monospace" font-size="11.00">reduce(state, action)</text>
<text text-anchor="middle" x="359" y="-310.66" font-family="monospace" font-size="11.00"> &#160;...</text>
</g>
<!-- ext&#45;&gt;bAmore -->
<g id="edge3" class="edge">
<title>ext&#45;&gt;bAmore</title>
<path fill="none" stroke="#6c8ebf" d="M556.1,-500.37C526.14,-478.4 486.81,-449.57 451.18,-423.44"/>
<polygon fill="#6c8ebf" stroke="#6c8ebf" points="453.56,-420.85 443.42,-417.76 449.42,-426.49 453.56,-420.85"/>
</g>
<!-- bBmore -->
<g id="node7" class="node">
<title>bBmore</title>
<path fill="#fff9db" stroke="#d6ae00" d="M931.48,-416.51C931.48,-416.51 770.52,-416.51 770.52,-416.51 764.52,-416.51 758.52,-410.51 758.52,-404.51 758.52,-404.51 758.52,-305.21 758.52,-305.21 758.52,-299.21 764.52,-293.21 770.52,-293.21 770.52,-293.21 931.48,-293.21 931.48,-293.21 937.48,-293.21 943.48,-299.21 943.48,-305.21 943.48,-305.21 943.48,-404.51 943.48,-404.51 943.48,-410.51 937.48,-416.51 931.48,-416.51"/>
<text text-anchor="middle" x="851" y="-391.66" font-family="monospace" font-size="11.00">···</text>
<text text-anchor="middle" x="851" y="-378.16" font-family="monospace" font-size="11.00">────────────────────</text>
<text text-anchor="middle" x="851" y="-364.66" font-family="monospace" font-size="11.00">observe(receiver)</text>
<text text-anchor="middle" x="851" y="-351.16" font-family="monospace" font-size="11.00"> &#160;...</text>
<text text-anchor="middle" x="851" y="-337.66" font-family="monospace" font-size="11.00">────────────────────</text>
<text text-anchor="middle" x="851" y="-324.16" font-family="monospace" font-size="11.00">reduce(state, action)</text>
<text text-anchor="middle" x="851" y="-310.66" font-family="monospace" font-size="11.00"> &#160;...</text>
</g>
<!-- ext&#45;&gt;bBmore -->
<g id="edge4" class="edge">
<title>ext&#45;&gt;bBmore</title>
<path fill="none" stroke="#6c8ebf" d="M653.9,-500.37C683.86,-478.4 723.19,-449.57 758.82,-423.44"/>
<polygon fill="#6c8ebf" stroke="#6c8ebf" points="760.58,-426.49 766.58,-417.76 756.44,-420.85 760.58,-426.49"/>
</g>
<!-- bCmore -->
<g id="node10" class="node">
<title>bCmore</title>
<path fill="#fff9db" stroke="#d6ae00" d="M1174.47,-416.51C1174.47,-416.51 1013.52,-416.51 1013.52,-416.51 1007.52,-416.51 1001.52,-410.51 1001.52,-404.51 1001.52,-404.51 1001.52,-305.21 1001.52,-305.21 1001.52,-299.21 1007.52,-293.21 1013.52,-293.21 1013.52,-293.21 1174.47,-293.21 1174.47,-293.21 1180.47,-293.21 1186.47,-299.21 1186.47,-305.21 1186.47,-305.21 1186.47,-404.51 1186.47,-404.51 1186.47,-410.51 1180.47,-416.51 1174.47,-416.51"/>
<text text-anchor="middle" x="1094" y="-391.66" font-family="monospace" font-size="11.00">···</text>
<text text-anchor="middle" x="1094" y="-378.16" font-family="monospace" font-size="11.00">────────────────────</text>
<text text-anchor="middle" x="1094" y="-364.66" font-family="monospace" font-size="11.00">observe(receiver)</text>
<text text-anchor="middle" x="1094" y="-351.16" font-family="monospace" font-size="11.00"> &#160;...</text>
<text text-anchor="middle" x="1094" y="-337.66" font-family="monospace" font-size="11.00">────────────────────</text>
<text text-anchor="middle" x="1094" y="-324.16" font-family="monospace" font-size="11.00">reduce(state, action)</text>
<text text-anchor="middle" x="1094" y="-310.66" font-family="monospace" font-size="11.00"> &#160;...</text>
</g>
<!-- ext&#45;&gt;bCmore -->
<g id="edge5" class="edge">
<title>ext&#45;&gt;bCmore</title>
<path fill="none" stroke="#6c8ebf" d="M685.47,-506.54C768.93,-475.76 899.69,-427.53 990.72,-393.96"/>
<polygon fill="#6c8ebf" stroke="#6c8ebf" points="991.75,-397.31 999.92,-390.56 989.33,-390.74 991.75,-397.31"/>
</g>
<!-- foldA -->
<g id="node5" class="node">
<title>foldA</title>
<path fill="#d5e8d4" stroke="#82b366" d="M501.1,-228.46C501.1,-228.46 238.9,-228.46 238.9,-228.46 232.9,-228.46 226.9,-222.46 226.9,-216.46 226.9,-216.46 226.9,-144.16 226.9,-144.16 226.9,-138.16 232.9,-132.16 238.9,-132.16 238.9,-132.16 501.1,-132.16 501.1,-132.16 507.1,-132.16 513.1,-138.16 513.1,-144.16 513.1,-144.16 513.1,-216.46 513.1,-216.46 513.1,-222.46 507.1,-228.46 501.1,-228.46"/>
<text text-anchor="middle" x="370" y="-203.61" font-family="monospace" font-size="11.00">reduce fold</text>
<text text-anchor="middle" x="370" y="-190.11" font-family="monospace" font-size="11.00">──────────────────────────────────</text>
<text text-anchor="middle" x="370" y="-176.61" font-family="monospace" font-size="11.00">state = BehaviourA1.reduce(state, a)</text>
<text text-anchor="middle" x="370" y="-163.11" font-family="monospace" font-size="11.00">state = BehaviourA2.reduce(state, a)</text>
<text text-anchor="middle" x="370" y="-149.61" font-family="monospace" font-size="11.00">state = ···</text>
</g>
<!-- bA1&#45;&gt;foldA -->
<g id="edge6" class="edge">
<title>bA1&#45;&gt;foldA</title>
<path fill="none" stroke="#d6ae00" d="M512.8,-286.16C489.96,-269.39 465.78,-251.64 443.94,-235.6"/>
<polygon fill="#d6ae00" stroke="#d6ae00" points="446.08,-232.83 435.95,-229.74 441.94,-238.48 446.08,-232.83"/>
<text text-anchor="middle" x="430.37" y="-264.13" font-family="monospace" font-size="10.00" fill="#d6ae00">dispatch(action)</text>
</g>
<!-- sfA -->
<g id="node6" class="node">
<title>sfA</title>
<path fill="#dae8fc" stroke="#6c8ebf" d="M560.98,-68.88C560.98,-71.79 525.58,-74.16 482,-74.16 438.42,-74.16 403.02,-71.79 403.02,-68.88 403.02,-68.88 403.02,-21.29 403.02,-21.29 403.02,-18.37 438.42,-16 482,-16 525.58,-16 560.98,-18.37 560.98,-21.29 560.98,-21.29 560.98,-68.88 560.98,-68.88"/>
<path fill="none" stroke="#6c8ebf" d="M560.98,-68.88C560.98,-65.96 525.58,-63.59 482,-63.59 438.42,-63.59 403.02,-65.96 403.02,-68.88"/>
<text text-anchor="middle" x="482" y="-41.38" font-family="monospace" font-size="11.00">StateFlow&lt;StateA&gt;</text>
</g>
<!-- bA1&#45;&gt;sfA -->
<g id="edge14" class="edge">
<title>bA1&#45;&gt;sfA</title>
<path fill="none" stroke="#888888" stroke-dasharray="5,2" d="M573.6,-275.78C547.5,-210.06 511.81,-120.16 493.65,-74.42"/>
<polygon fill="#888888" stroke="#888888" points="570.2,-276.7 577.14,-284.71 576.71,-274.12 570.2,-276.7"/>
<text text-anchor="middle" x="560.62" y="-178.35" font-family="monospace" font-size="10.00" fill="#888888">collect()</text>
</g>
<!-- bA2&#45;&gt;foldA -->
<g id="edge7" class="edge">
<title>bA2&#45;&gt;foldA</title>
<path fill="none" stroke="#d6ae00" d="M205.91,-292.78C233.61,-273.97 263.89,-253.39 290.82,-235.1"/>
<polygon fill="#d6ae00" stroke="#d6ae00" points="292.64,-238.1 298.94,-229.59 288.7,-232.31 292.64,-238.1"/>
<text text-anchor="middle" x="200.36" y="-267.19" font-family="monospace" font-size="10.00" fill="#d6ae00">dispatch(action)</text>
</g>
<!-- bAmore&#45;&gt;foldA -->
<g id="edge8" class="edge">
<title>bAmore&#45;&gt;foldA</title>
<path fill="none" stroke="#d6ae00" d="M362.88,-293.03C363.97,-275.92 365.15,-257.35 366.24,-240.35"/>
<polygon fill="#d6ae00" stroke="#d6ae00" points="369.73,-240.58 366.87,-230.38 362.74,-240.13 369.73,-240.58"/>
<text text-anchor="middle" x="316.56" y="-269.94" font-family="monospace" font-size="10.00" fill="#d6ae00">dispatch(action)</text>
</g>
<!-- foldA&#45;&gt;sfA -->
<g id="edge9" class="edge">
<title>foldA&#45;&gt;sfA</title>
<path fill="none" stroke="#82b366" d="M409.8,-131.97C423.36,-115.83 438.31,-98.05 451.07,-82.88"/>
<polygon fill="#82b366" stroke="#82b366" points="453.57,-85.34 457.33,-75.43 448.21,-80.83 453.57,-85.34"/>
<text text-anchor="middle" x="403.44" y="-110.67" font-family="monospace" font-size="10.00" fill="#82b366">new state</text>
</g>
<!-- bBmore&#45;&gt;sfA -->
<g id="edge17" class="edge">
<title>bBmore&#45;&gt;sfA</title>
<path fill="none" stroke="#ff0000" stroke-dasharray="5,2" d="M768.74,-285.81C689.86,-219.59 574.55,-122.78 517.16,-74.6"/>
<polygon fill="#ff0000" stroke="#ff0000" points="766.15,-288.2 776.06,-291.95 770.65,-282.83 766.15,-288.2"/>
<text text-anchor="middle" x="615.95" y="-183.45" font-family="monospace" font-size="10.00" fill="#ff0000">collect()</text>
</g>
<!-- foldB -->
<g id="node8" class="node">
<title>foldB</title>
<path fill="#d5e8d4" stroke="#82b366" d="M859.73,-201.46C859.73,-201.46 766.27,-201.46 766.27,-201.46 760.27,-201.46 754.27,-195.46 754.27,-189.46 754.27,-189.46 754.27,-171.16 754.27,-171.16 754.27,-165.16 760.27,-159.16 766.27,-159.16 766.27,-159.16 859.73,-159.16 859.73,-159.16 865.73,-159.16 871.73,-165.16 871.73,-171.16 871.73,-171.16 871.73,-189.46 871.73,-189.46 871.73,-195.46 865.73,-201.46 859.73,-201.46"/>
<text text-anchor="middle" x="813" y="-176.61" font-family="monospace" font-size="11.00">reduce fold</text>
</g>
<!-- bBmore&#45;&gt;foldB -->
<g id="edge10" class="edge">
<title>bBmore&#45;&gt;foldB</title>
<path fill="none" stroke="#d6ae00" d="M837.6,-293.03C831.66,-266.05 824.92,-235.43 820,-213.08"/>
<polygon fill="#d6ae00" stroke="#d6ae00" points="823.43,-212.39 817.86,-203.37 816.59,-213.89 823.43,-212.39"/>
<text text-anchor="middle" x="780.8" y="-256.3" font-family="monospace" font-size="10.00" fill="#d6ae00">dispatch(action)</text>
</g>
<!-- sfB -->
<g id="node9" class="node">
<title>sfB</title>
<path fill="#dae8fc" stroke="#6c8ebf" d="M921.98,-68.88C921.98,-71.79 886.58,-74.16 843,-74.16 799.42,-74.16 764.02,-71.79 764.02,-68.88 764.02,-68.88 764.02,-21.29 764.02,-21.29 764.02,-18.37 799.42,-16 843,-16 886.58,-16 921.98,-18.37 921.98,-21.29 921.98,-21.29 921.98,-68.88 921.98,-68.88"/>
<path fill="none" stroke="#6c8ebf" d="M921.98,-68.88C921.98,-65.96 886.58,-63.59 843,-63.59 799.42,-63.59 764.02,-65.96 764.02,-68.88"/>
<text text-anchor="middle" x="843" y="-41.38" font-family="monospace" font-size="11.00">StateFlow&lt;StateB&gt;</text>
</g>
<!-- bBmore&#45;&gt;sfB -->
<g id="edge15" class="edge">
<title>bBmore&#45;&gt;sfB</title>
<path fill="none" stroke="#888888" stroke-dasharray="5,2" d="M849.11,-281.75C847.41,-215.69 844.98,-121.8 843.76,-74.6"/>
<polygon fill="#888888" stroke="#888888" points="845.6,-281.5 849.36,-291.41 852.6,-281.32 845.6,-281.5"/>
<text text-anchor="middle" x="873.44" y="-181.42" font-family="monospace" font-size="10.00" fill="#888888">collect()</text>
</g>
<!-- foldB&#45;&gt;sfB -->
<g id="edge11" class="edge">
<title>foldB&#45;&gt;sfB</title>
<path fill="none" stroke="#82b366" d="M817.62,-158.79C822.02,-139.25 828.75,-109.35 834.18,-85.25"/>
<polygon fill="#82b366" stroke="#82b366" points="837.53,-86.3 836.31,-75.78 830.7,-84.77 837.53,-86.3"/>
</g>
<!-- bCmore&#45;&gt;sfA -->
<g id="edge18" class="edge">
<title>bCmore&#45;&gt;sfA</title>
<path fill="none" stroke="#ff0000" stroke-dasharray="5,2" d="M991.07,-302.76C860.97,-236.91 641.61,-125.87 538.61,-73.74"/>
<polygon fill="#ff0000" stroke="#ff0000" points="989.2,-305.74 999.7,-307.13 992.36,-299.49 989.2,-305.74"/>
<text text-anchor="middle" x="737.84" y="-191.5" font-family="monospace" font-size="10.00" fill="#ff0000">collect()</text>
</g>
<!-- bCmore&#45;&gt;sfB -->
<g id="edge19" class="edge">
<title>bCmore&#45;&gt;sfB</title>
<path fill="none" stroke="#ff0000" stroke-dasharray="5,2" d="M1036.74,-284.19C983.12,-218.02 905.64,-122.39 866.92,-74.6"/>
<polygon fill="#ff0000" stroke="#ff0000" points="1033.84,-286.18 1042.86,-291.74 1039.28,-281.77 1033.84,-286.18"/>
<text text-anchor="middle" x="965.33" y="-169.89" font-family="monospace" font-size="10.00" fill="#ff0000">collect()</text>
</g>
<!-- foldC -->
<g id="node11" class="node">
<title>foldC</title>
<path fill="#d5e8d4" stroke="#82b366" d="M1109.72,-201.46C1109.72,-201.46 1016.27,-201.46 1016.27,-201.46 1010.27,-201.46 1004.27,-195.46 1004.27,-189.46 1004.27,-189.46 1004.27,-171.16 1004.27,-171.16 1004.27,-165.16 1010.27,-159.16 1016.27,-159.16 1016.27,-159.16 1109.72,-159.16 1109.72,-159.16 1115.72,-159.16 1121.72,-165.16 1121.72,-171.16 1121.72,-171.16 1121.72,-189.46 1121.72,-189.46 1121.72,-195.46 1115.72,-201.46 1109.72,-201.46"/>
<text text-anchor="middle" x="1063" y="-176.61" font-family="monospace" font-size="11.00">reduce fold</text>
</g>
<!-- bCmore&#45;&gt;foldC -->
<g id="edge12" class="edge">
<title>bCmore&#45;&gt;foldC</title>
<path fill="none" stroke="#d6ae00" d="M1083.07,-293.03C1078.22,-266.05 1072.72,-235.43 1068.71,-213.08"/>
<polygon fill="#d6ae00" stroke="#d6ae00" points="1072.18,-212.61 1066.97,-203.39 1065.29,-213.85 1072.18,-212.61"/>
<text text-anchor="middle" x="1027.89" y="-256.3" font-family="monospace" font-size="10.00" fill="#d6ae00">dispatch(action)</text>
</g>
<!-- sfC -->
<g id="node12" class="node">
<title>sfC</title>
<path fill="#dae8fc" stroke="#6c8ebf" d="M1172.97,-68.88C1172.97,-71.79 1137.58,-74.16 1094,-74.16 1050.42,-74.16 1015.02,-71.79 1015.02,-68.88 1015.02,-68.88 1015.02,-21.29 1015.02,-21.29 1015.02,-18.37 1050.42,-16 1094,-16 1137.58,-16 1172.97,-18.37 1172.97,-21.29 1172.97,-21.29 1172.97,-68.88 1172.97,-68.88"/>
<path fill="none" stroke="#6c8ebf" d="M1172.97,-68.88C1172.97,-65.96 1137.58,-63.59 1094,-63.59 1050.42,-63.59 1015.02,-65.96 1015.02,-68.88"/>
<text text-anchor="middle" x="1094" y="-41.38" font-family="monospace" font-size="11.00">StateFlow&lt;StateC&gt;</text>
</g>
<!-- bCmore&#45;&gt;sfC -->
<g id="edge16" class="edge">
<title>bCmore&#45;&gt;sfC</title>
<path fill="none" stroke="#888888" stroke-dasharray="5,2" d="M1094,-281.75C1094,-215.69 1094,-121.8 1094,-74.6"/>
<polygon fill="#888888" stroke="#888888" points="1090.5,-281.4 1094,-291.4 1097.5,-281.4 1090.5,-281.4"/>
<text text-anchor="middle" x="1121" y="-181.42" font-family="monospace" font-size="10.00" fill="#888888">collect()</text>
</g>
<!-- foldC&#45;&gt;sfC -->
<g id="edge13" class="edge">
<title>foldC&#45;&gt;sfC</title>
<path fill="none" stroke="#82b366" d="M1067.78,-158.79C1072.32,-139.25 1079.28,-109.35 1084.89,-85.25"/>
<polygon fill="#82b366" stroke="#82b366" points="1088.23,-86.31 1087.09,-75.78 1081.42,-84.72 1088.23,-86.31"/>
</g>
</g>
</svg>
