<?xml version="1.0" encoding="UTF-8" standalone="no"?>
<!DOCTYPE svg PUBLIC "-//W3C//DTD SVG 1.1//EN"
 "http://www.w3.org/Graphics/SVG/1.1/DTD/svg11.dtd">
<!-- Generated by graphviz version 12.2.1 (0)
 -->
<!-- Title: module_architecture Pages: 1 -->
<svg width="726pt" height="917pt"
 viewBox="0.00 0.00 726.00 917.14" xmlns="http://www.w3.org/2000/svg" xmlns:xlink="http://www.w3.org/1999/xlink">
<g id="graph0" class="graph" transform="scale(1 1) rotate(0) translate(4 913.14)">
<title>module_architecture</title>
<polygon fill="white" stroke="none" points="-4,4 -4,-913.14 722,-913.14 722,4 -4,4"/>
<g id="clust1" class="cluster">
<title>cluster_A</title>
<path fill="#fafafa" stroke="#999999" stroke-width="1.5" d="M20,-340.46C20,-340.46 698,-340.46 698,-340.46 704,-340.46 710,-346.46 710,-352.46 710,-352.46 710,-810.23 710,-810.23 710,-816.23 704,-822.23 698,-822.23 698,-822.23 20,-822.23 20,-822.23 14,-822.23 8,-816.23 8,-810.23 8,-810.23 8,-352.46 8,-352.46 8,-346.46 14,-340.46 20,-340.46"/>
<text text-anchor="middle" x="359" y="-804.93" font-family="monospace" font-size="14.00">Module A</text>
</g>
<g id="clust2" class="cluster">
<title>cluster_A_beh</title>
<polygon fill="#fffff8" stroke="#aaaaaa" stroke-width="1.5" stroke-dasharray="5,2" points="16,-610.93 16,-788.98 702,-788.98 702,-610.93 16,-610.93"/>
<text text-anchor="middle" x="359" y="-771.68" font-family="monospace" font-size="14.00">Behaviours</text>
</g>
<g id="clust3" class="cluster">
<title>cluster_B</title>
<path fill="#fafafa" stroke="#999999" stroke-width="1.5" d="M20,-8C20,-8 212,-8 212,-8 218,-8 224,-14 224,-20 224,-20 224,-269.46 224,-269.46 224,-275.46 218,-281.46 212,-281.46 212,-281.46 20,-281.46 20,-281.46 14,-281.46 8,-275.46 8,-269.46 8,-269.46 8,-20 8,-20 8,-14 14,-8 20,-8"/>
<text text-anchor="middle" x="116" y="-264.16" font-family="monospace" font-size="14.00">Module B</text>
</g>
<g id="clust4" class="cluster">
<title>cluster_B_beh</title>
<polygon fill="#fffff8" stroke="#aaaaaa" stroke-width="1.5" stroke-dasharray="5,2" points="16,-124.16 16,-248.21 216,-248.21 216,-124.16 16,-124.16"/>
<text text-anchor="middle" x="116" y="-230.91" font-family="monospace" font-size="14.00">Behaviours</text>
</g>
<g id="clust5" class="cluster">
<title>cluster_C</title>
<path fill="#fafafa" stroke="#999999" stroke-width="1.5" d="M263,-8C263,-8 455,-8 455,-8 461,-8 467,-14 467,-20 467,-20 467,-269.46 467,-269.46 467,-275.46 461,-281.46 455,-281.46 455,-281.46 263,-281.46 263,-281.46 257,-281.46 251,-275.46 251,-269.46 251,-269.46 251,-20 251,-20 251,-14 257,-8 263,-8"/>
<text text-anchor="middle" x="359" y="-264.16" font-family="monospace" font-size="14.00">Module C</text>
</g>
<g id="clust6" class="cluster">
<title>cluster_C_beh</title>
<polygon fill="#fffff8" stroke="#aaaaaa" stroke-width="1.5" stroke-dasharray="5,2" points="259,-124.16 259,-248.21 459,-248.21 459,-124.16 259,-124.16"/>
<text text-anchor="middle" x="359" y="-230.91" font-family="monospace" font-size="14.00">Behaviours</text>
</g>
<g id="clust7" class="cluster">
<title>cluster_D</title>
<path fill="#fafafa" stroke="#999999" stroke-width="1.5" d="M506,-8C506,-8 698,-8 698,-8 704,-8 710,-14 710,-20 710,-20 710,-269.46 710,-269.46 710,-275.46 704,-281.46 698,-281.46 698,-281.46 506,-281.46 506,-281.46 500,-281.46 494,-275.46 494,-269.46 494,-269.46 494,-20 494,-20 494,-14 500,-8 506,-8"/>
<text text-anchor="middle" x="602" y="-264.16" font-family="monospace" font-size="14.00">Module D</text>
</g>
<g id="clust8" class="cluster">
<title>cluster_D_beh</title>
<polygon fill="#fffff8" stroke="#aaaaaa" stroke-width="1.5" stroke-dasharray="5,2" points="502,-124.16 502,-248.21 702,-248.21 702,-124.16 502,-124.16"/>
<text text-anchor="middle" x="602" y="-230.91" font-family="monospace" font-size="14.00">Behaviours</text>
</g>
<!-- ext -->
<g id="node1" class="node">
<title>ext</title>
<ellipse fill="#dae8fc" stroke="#6c8ebf" cx="359" cy="-869.68" rx="126.01" ry="39.46"/>
<text text-anchor="middle" x="359" y="-872.73" font-family="monospace" font-size="11.00">external events</text>
<text text-anchor="middle" x="359" y="-859.23" font-family="monospace" font-size="11.00">(packets · messages)</text>
</g>
<!-- bA1 -->
<g id="node2" class="node">
<title>bA1</title>
<path fill="#fff9db" stroke="#d6ae00" d="M196.47,-755.73C196.47,-755.73 35.53,-755.73 35.53,-755.73 29.53,-755.73 23.53,-749.73 23.53,-743.73 23.53,-743.73 23.53,-630.93 23.53,-630.93 23.53,-624.93 29.53,-618.93 35.53,-618.93 35.53,-618.93 196.47,-618.93 196.47,-618.93 202.47,-618.93 208.47,-624.93 208.47,-630.93 208.47,-630.93 208.47,-743.73 208.47,-743.73 208.47,-749.73 202.47,-755.73 196.47,-755.73"/>
<text text-anchor="middle" x="116" y="-730.88" font-family="monospace" font-size="11.00">BehaviourA1</text>
<text text-anchor="middle" x="116" y="-717.38" font-family="monospace" font-size="11.00">────────────────────</text>
<text text-anchor="middle" x="116" y="-703.88" font-family="monospace" font-size="11.00">observe(receiver)</text>
<text text-anchor="middle" x="116" y="-690.38" font-family="monospace" font-size="11.00"> &#160;subscribes to flows</text>
<text text-anchor="middle" x="116" y="-676.88" font-family="monospace" font-size="11.00"> &#160;calls dispatch()</text>
<text text-anchor="middle" x="116" y="-663.38" font-family="monospace" font-size="11.00">────────────────────</text>
<text text-anchor="middle" x="116" y="-649.88" font-family="monospace" font-size="11.00">reduce(state, action)</text>
<text text-anchor="middle" x="116" y="-636.38" font-family="monospace" font-size="11.00"> &#160;pure: State → State</text>
</g>
<!-- ext&#45;&gt;bA1 -->
<g id="edge4" class="edge">
<title>ext&#45;&gt;bA1</title>
<path fill="none" stroke="#6c8ebf" d="M271.89,-840.93C260.05,-835.55 248.41,-829.33 238,-822.23 214.83,-806.4 193,-785.35 174.38,-764.63"/>
<polygon fill="#6c8ebf" stroke="#6c8ebf" points="177.1,-762.43 167.87,-757.23 171.85,-767.05 177.1,-762.43"/>
<text text-anchor="middle" x="187.4" y="-807.31" font-family="monospace" font-size="10.00" fill="#6c8ebf">subscribe</text>
</g>
<!-- bA2 -->
<g id="node3" class="node">
<title>bA2</title>
<path fill="#fff9db" stroke="#d6ae00" d="M439.48,-748.98C439.48,-748.98 278.52,-748.98 278.52,-748.98 272.52,-748.98 266.52,-742.98 266.52,-736.98 266.52,-736.98 266.52,-637.68 266.52,-637.68 266.52,-631.68 272.52,-625.68 278.52,-625.68 278.52,-625.68 439.48,-625.68 439.48,-625.68 445.48,-625.68 451.48,-631.68 451.48,-637.68 451.48,-637.68 451.48,-736.98 451.48,-736.98 451.48,-742.98 445.48,-748.98 439.48,-748.98"/>
<text text-anchor="middle" x="359" y="-724.12" font-family="monospace" font-size="11.00">BehaviourA2</text>
<text text-anchor="middle" x="359" y="-710.62" font-family="monospace" font-size="11.00">────────────────────</text>
<text text-anchor="middle" x="359" y="-697.12" font-family="monospace" font-size="11.00">observe(receiver)</text>
<text text-anchor="middle" x="359" y="-683.62" font-family="monospace" font-size="11.00"> &#160;...</text>
<text text-anchor="middle" x="359" y="-670.12" font-family="monospace" font-size="11.00">────────────────────</text>
<text text-anchor="middle" x="359" y="-656.62" font-family="monospace" font-size="11.00">reduce(state, action)</text>
<text text-anchor="middle" x="359" y="-643.12" font-family="monospace" font-size="11.00"> &#160;...</text>
</g>
<!-- ext&#45;&gt;bA2 -->
<g id="edge5" class="edge">
<title>ext&#45;&gt;bA2</title>
<path fill="none" stroke="#6c8ebf" d="M359,-829.99C359,-809.8 359,-784.43 359,-760.76"/>
<polygon fill="#6c8ebf" stroke="#6c8ebf" points="362.5,-760.82 359,-750.82 355.5,-760.82 362.5,-760.82"/>
</g>
<!-- bAmore -->
<g id="node4" class="node">
<title>bAmore</title>
<path fill="#fff9db" stroke="#d6ae00" d="M682.48,-748.98C682.48,-748.98 521.52,-748.98 521.52,-748.98 515.52,-748.98 509.52,-742.98 509.52,-736.98 509.52,-736.98 509.52,-637.68 509.52,-637.68 509.52,-631.68 515.52,-625.68 521.52,-625.68 521.52,-625.68 682.48,-625.68 682.48,-625.68 688.48,-625.68 694.48,-631.68 694.48,-637.68 694.48,-637.68 694.48,-736.98 694.48,-736.98 694.48,-742.98 688.48,-748.98 682.48,-748.98"/>
<text text-anchor="middle" x="602" y="-724.12" font-family="monospace" font-size="11.00">···</text>
<text text-anchor="middle" x="602" y="-710.62" font-family="monospace" font-size="11.00">────────────────────</text>
<text text-anchor="middle" x="602" y="-697.12" font-family="monospace" font-size="11.00">observe(receiver)</text>
<text text-anchor="middle" x="602" y="-683.62" font-family="monospace" font-size="11.00"> &#160;...</text>
<text text-anchor="middle" x="602" y="-670.12" font-family="monospace" font-size="11.00">────────────────────</text>
<text text-anchor="middle" x="602" y="-656.62" font-family="monospace" font-size="11.00">reduce(state, action)</text>
<text text-anchor="middle" x="602" y="-643.12" font-family="monospace" font-size="11.00"> &#160;...</text>
</g>
<!-- ext&#45;&gt;bAmore -->
<g id="edge6" class="edge">
<title>ext&#45;&gt;bAmore</title>
<path fill="none" stroke="#6c8ebf" d="M446.11,-840.93C457.95,-835.55 469.59,-829.33 480,-822.23 505.68,-804.69 529.72,-780.73 549.55,-757.92"/>
<polygon fill="#6c8ebf" stroke="#6c8ebf" points="552.14,-760.28 555.97,-750.4 546.81,-755.74 552.14,-760.28"/>
</g>
<!-- foldA -->
<g id="node5" class="node">
<title>foldA</title>
<path fill="#d5e8d4" stroke="#82b366" d="M490.1,-560.92C490.1,-560.92 227.9,-560.92 227.9,-560.92 221.9,-560.92 215.9,-554.92 215.9,-548.92 215.9,-548.92 215.9,-476.62 215.9,-476.62 215.9,-470.62 221.9,-464.62 227.9,-464.62 227.9,-464.62 490.1,-464.62 490.1,-464.62 496.1,-464.62 502.1,-470.62 502.1,-476.62 502.1,-476.62 502.1,-548.92 502.1,-548.92 502.1,-554.92 496.1,-560.92 490.1,-560.92"/>
<text text-anchor="middle" x="359" y="-536.07" font-family="monospace" font-size="11.00">reduce fold</text>
<text text-anchor="middle" x="359" y="-522.57" font-family="monospace" font-size="11.00">──────────────────────────────────</text>
<text text-anchor="middle" x="359" y="-509.07" font-family="monospace" font-size="11.00">state = BehaviourA1.reduce(state, a)</text>
<text text-anchor="middle" x="359" y="-495.57" font-family="monospace" font-size="11.00">state = BehaviourA2.reduce(state, a)</text>
<text text-anchor="middle" x="359" y="-482.07" font-family="monospace" font-size="11.00">state = ···</text>
</g>
<!-- bA1&#45;&gt;foldA -->
<g id="edge7" class="edge">
<title>bA1&#45;&gt;foldA</title>
<path fill="none" stroke="#d6ae00" d="M208.91,-620.35C233.39,-602.97 259.52,-584.41 283,-567.74"/>
<polygon fill="#d6ae00" stroke="#d6ae00" points="284.84,-570.73 290.96,-562.09 280.78,-565.02 284.84,-570.73"/>
<text text-anchor="middle" x="202.44" y="-594.11" font-family="monospace" font-size="10.00" fill="#d6ae00">dispatch(action)</text>
</g>
<!-- bA2&#45;&gt;foldA -->
<g id="edge8" class="edge">
<title>bA2&#45;&gt;foldA</title>
<path fill="none" stroke="#d6ae00" d="M359,-625.49C359,-608.38 359,-589.81 359,-572.81"/>
<polygon fill="#d6ae00" stroke="#d6ae00" points="362.5,-572.84 359,-562.84 355.5,-572.84 362.5,-572.84"/>
</g>
<!-- bAmore&#45;&gt;foldA -->
<g id="edge9" class="edge">
<title>bAmore&#45;&gt;foldA</title>
<path fill="none" stroke="#d6ae00" d="M515.99,-625.25C489.6,-606.51 460.76,-586.04 435.09,-567.81"/>
<polygon fill="#d6ae00" stroke="#d6ae00" points="437.2,-565.01 427.02,-562.07 433.15,-570.72 437.2,-565.01"/>
</g>
<!-- sfA -->
<g id="node6" class="node">
<title>sfA</title>
<path fill="#dae8fc" stroke="#6c8ebf" d="M437.98,-401.34C437.98,-404.26 402.58,-406.62 359,-406.62 315.42,-406.62 280.02,-404.26 280.02,-401.34 280.02,-401.34 280.02,-353.75 280.02,-353.75 280.02,-350.83 315.42,-348.46 359,-348.46 402.58,-348.46 437.98,-350.83 437.98,-353.75 437.98,-353.75 437.98,-401.34 437.98,-401.34"/>
<path fill="none" stroke="#6c8ebf" d="M437.98,-401.34C437.98,-398.42 402.58,-396.05 359,-396.05 315.42,-396.05 280.02,-398.42 280.02,-401.34"/>
<text text-anchor="middle" x="359" y="-373.84" font-family="monospace" font-size="11.00">StateFlow&lt;StateA&gt;</text>
</g>
<!-- foldA&#45;&gt;sfA -->
<g id="edge10" class="edge">
<title>foldA&#45;&gt;sfA</title>
<path fill="none" stroke="#82b366" d="M359,-464.43C359,-449.2 359,-432.51 359,-417.92"/>
<polygon fill="#82b366" stroke="#82b366" points="362.5,-418.25 359,-408.25 355.5,-418.25 362.5,-418.25"/>
<text text-anchor="middle" x="332" y="-439.01" font-family="monospace" font-size="10.00" fill="#82b366">new state</text>
</g>
<!-- sfA&#45;&gt;bA2 -->
<g id="edge11" class="edge">
<title>sfA&#45;&gt;bA2</title>
<path fill="none" stroke="#888888" stroke-dasharray="5,2" d="M438.35,-397.89C473.1,-410.73 510.55,-431.53 531,-464.62 553.49,-501.04 550.4,-522.77 531,-560.92 522.39,-577.86 492.94,-601.43 460.79,-623.56"/>
<polygon fill="#888888" stroke="#888888" points="459.22,-620.39 452.92,-628.91 463.15,-626.18 459.22,-620.39"/>
<text text-anchor="middle" x="441.87" y="-588.05" font-family="monospace" font-size="10.00" fill="#888888">collect() &#45;&gt; dispatch()</text>
</g>
<!-- bB -->
<g id="node7" class="node">
<title>bB</title>
<path fill="#fff9db" stroke="#d6ae00" d="M196.47,-214.96C196.47,-214.96 35.53,-214.96 35.53,-214.96 29.53,-214.96 23.53,-208.96 23.53,-202.96 23.53,-202.96 23.53,-144.16 23.53,-144.16 23.53,-138.16 29.53,-132.16 35.53,-132.16 35.53,-132.16 196.47,-132.16 196.47,-132.16 202.47,-132.16 208.47,-138.16 208.47,-144.16 208.47,-144.16 208.47,-202.96 208.47,-202.96 208.47,-208.96 202.47,-214.96 196.47,-214.96"/>
<text text-anchor="middle" x="116" y="-190.11" font-family="monospace" font-size="11.00">observe()</text>
<text text-anchor="middle" x="116" y="-176.61" font-family="monospace" font-size="11.00"> &#160;subscribes to flows</text>
<text text-anchor="middle" x="116" y="-163.11" font-family="monospace" font-size="11.00"> &#160;and external events</text>
<text text-anchor="middle" x="116" y="-149.61" font-family="monospace" font-size="11.00">reduce(state, action)</text>
</g>
<!-- sfA&#45;&gt;bB -->
<g id="edge12" class="edge">
<title>sfA&#45;&gt;bB</title>
<path fill="none" stroke="#b85450" stroke-dasharray="5,2" d="M324.7,-348.03C285.41,-315.38 220.41,-261.35 173.38,-222.26"/>
<polygon fill="#b85450" stroke="#b85450" points="175.91,-219.81 165.98,-216.11 171.43,-225.19 175.91,-219.81"/>
<text text-anchor="middle" x="217.95" y="-285" font-family="monospace" font-size="10.00" fill="#b85450">collect()</text>
</g>
<!-- bC -->
<g id="node9" class="node">
<title>bC</title>
<path fill="#fff9db" stroke="#d6ae00" d="M439.48,-214.96C439.48,-214.96 278.52,-214.96 278.52,-214.96 272.52,-214.96 266.52,-208.96 266.52,-202.96 266.52,-202.96 266.52,-144.16 266.52,-144.16 266.52,-138.16 272.52,-132.16 278.52,-132.16 278.52,-132.16 439.48,-132.16 439.48,-132.16 445.48,-132.16 451.48,-138.16 451.48,-144.16 451.48,-144.16 451.48,-202.96 451.48,-202.96 451.48,-208.96 445.48,-214.96 439.48,-214.96"/>
<text text-anchor="middle" x="359" y="-190.11" font-family="monospace" font-size="11.00">observe()</text>
<text text-anchor="middle" x="359" y="-176.61" font-family="monospace" font-size="11.00"> &#160;subscribes to flows</text>
<text text-anchor="middle" x="359" y="-163.11" font-family="monospace" font-size="11.00"> &#160;and external events</text>
<text text-anchor="middle" x="359" y="-149.61" font-family="monospace" font-size="11.00">reduce(state, action)</text>
</g>
<!-- sfA&#45;&gt;bC -->
<g id="edge13" class="edge">
<title>sfA&#45;&gt;bC</title>
<path fill="none" stroke="#b85450" stroke-dasharray="5,2" d="M359,-348.03C359,-316.46 359,-264.91 359,-226.2"/>
<polygon fill="#b85450" stroke="#b85450" points="362.5,-226.65 359,-216.65 355.5,-226.65 362.5,-226.65"/>
<text text-anchor="middle" x="332" y="-284.88" font-family="monospace" font-size="10.00" fill="#b85450">collect()</text>
</g>
<!-- bD -->
<g id="node11" class="node">
<title>bD</title>
<path fill="#fff9db" stroke="#d6ae00" d="M682.48,-214.96C682.48,-214.96 521.52,-214.96 521.52,-214.96 515.52,-214.96 509.52,-208.96 509.52,-202.96 509.52,-202.96 509.52,-144.16 509.52,-144.16 509.52,-138.16 515.52,-132.16 521.52,-132.16 521.52,-132.16 682.48,-132.16 682.48,-132.16 688.48,-132.16 694.48,-138.16 694.48,-144.16 694.48,-144.16 694.48,-202.96 694.48,-202.96 694.48,-208.96 688.48,-214.96 682.48,-214.96"/>
<text text-anchor="middle" x="602" y="-190.11" font-family="monospace" font-size="11.00">observe()</text>
<text text-anchor="middle" x="602" y="-176.61" font-family="monospace" font-size="11.00"> &#160;subscribes to flows</text>
<text text-anchor="middle" x="602" y="-163.11" font-family="monospace" font-size="11.00"> &#160;and external events</text>
<text text-anchor="middle" x="602" y="-149.61" font-family="monospace" font-size="11.00">reduce(state, action)</text>
</g>
<!-- sfA&#45;&gt;bD -->
<g id="edge14" class="edge">
<title>sfA&#45;&gt;bD</title>
<path fill="none" stroke="#b85450" stroke-dasharray="5,2" d="M393.3,-348.03C432.59,-315.38 497.59,-261.35 544.62,-222.26"/>
<polygon fill="#b85450" stroke="#b85450" points="546.57,-225.19 552.02,-216.11 542.09,-219.81 546.57,-225.19"/>
<text text-anchor="middle" x="446.05" y="-285" font-family="monospace" font-size="10.00" fill="#b85450">collect()</text>
</g>
<!-- sfB -->
<g id="node8" class="node">
<title>sfB</title>
<path fill="#dae8fc" stroke="#6c8ebf" d="M194.97,-68.88C194.97,-71.79 159.58,-74.16 116,-74.16 72.42,-74.16 37.03,-71.79 37.03,-68.88 37.03,-68.88 37.03,-21.29 37.03,-21.29 37.03,-18.37 72.42,-16 116,-16 159.58,-16 194.97,-18.37 194.97,-21.29 194.97,-21.29 194.97,-68.88 194.97,-68.88"/>
<path fill="none" stroke="#6c8ebf" d="M194.97,-68.88C194.97,-65.96 159.58,-63.59 116,-63.59 72.42,-63.59 37.03,-65.96 37.03,-68.88"/>
<text text-anchor="middle" x="116" y="-41.38" font-family="monospace" font-size="11.00">StateFlow&lt;StateB&gt;</text>
</g>
<!-- bB&#45;&gt;sfB -->
<!-- sfC -->
<g id="node10" class="node">
<title>sfC</title>
<path fill="#dae8fc" stroke="#6c8ebf" d="M437.98,-68.88C437.98,-71.79 402.58,-74.16 359,-74.16 315.42,-74.16 280.02,-71.79 280.02,-68.88 280.02,-68.88 280.02,-21.29 280.02,-21.29 280.02,-18.37 315.42,-16 359,-16 402.58,-16 437.98,-18.37 437.98,-21.29 437.98,-21.29 437.98,-68.88 437.98,-68.88"/>
<path fill="none" stroke="#6c8ebf" d="M437.98,-68.88C437.98,-65.96 402.58,-63.59 359,-63.59 315.42,-63.59 280.02,-65.96 280.02,-68.88"/>
<text text-anchor="middle" x="359" y="-41.38" font-family="monospace" font-size="11.00">StateFlow&lt;StateC&gt;</text>
</g>
<!-- bC&#45;&gt;sfC -->
<!-- sfD -->
<g id="node12" class="node">
<title>sfD</title>
<path fill="#dae8fc" stroke="#6c8ebf" d="M680.98,-68.88C680.98,-71.79 645.58,-74.16 602,-74.16 558.42,-74.16 523.02,-71.79 523.02,-68.88 523.02,-68.88 523.02,-21.29 523.02,-21.29 523.02,-18.37 558.42,-16 602,-16 645.58,-16 680.98,-18.37 680.98,-21.29 680.98,-21.29 680.98,-68.88 680.98,-68.88"/>
<path fill="none" stroke="#6c8ebf" d="M680.98,-68.88C680.98,-65.96 645.58,-63.59 602,-63.59 558.42,-63.59 523.02,-65.96 523.02,-68.88"/>
<text text-anchor="middle" x="602" y="-41.38" font-family="monospace" font-size="11.00">StateFlow&lt;StateD&gt;</text>
</g>
<!-- bD&#45;&gt;sfD -->
</g>
</svg>
