{"asset":{"generator":"Khronos glTF Blender I/O v5.2.40","version":"2.0"},"scene":0,"scenes":[{"name":"Scene","nodes":[0]}],"nodes":[{"mesh":0,"name":"LEFT_BIG_TOE"}],"materials":[{"doubleSided":true,"name":"Material","pbrMetallicRoughness":{"baseColorFactor":[0.800000011920929,0.800000011920929,0.800000011920929,1],"metallicFactor":0,"roughnessFactor":0.5}}],"meshes":[{"name":"LEFT_BIG_TOE.003","primitives":[{"attributes":{"POSITION":0,"NORMAL":1,"TEXCOORD_0":2},"indices":3,"material":0}]}],"accessors":[{"bufferView":0,"componentType":5126,"count":33,"max":[0.013121344149112701,-0.0009576678276062012,0.009492158889770508],"min":[-0.016654521226882935,-0.049483150243759155,-0.020783070474863052],"type":"VEC3"},{"bufferView":1,"componentType":5126,"count":33,"type":"VEC3"},{"bufferView":2,"componentType":5126,"count":33,"type":"VEC2"},{"bufferView":3,"componentType":5123,"count":105,"type":"SCALAR"}],"bufferViews":[{"buffer":0,"byteLength":396,"byteOffset":0,"target":34962},{"buffer":0,"byteLength":396,"byteOffset":396,"target":34962},{"buffer":0,"byteLength":264,"byteOffset":792,"target":34962},{"buffer":0,"byteLength":210,"byteOffset":1056,"target":34963}],"buffers":[{"byteLength":1268,"uri":"data:application/octet-stream;base64,"}]}