{
 "asset": {
  "version": "2.0",
  "generator": "THREE.GLTFExporter"
 },
 "scenes": [
  {
   "nodes": [
    0
   ]
  }
 ],
 "scene": 0,
 "nodes": [
  {
   "name": "calf",
   "mesh": 0
  }
 ],
 "bufferViews": [
  {
   "buffer": 0,
   "byteOffset": 0,
   "byteLength": 2040,
   "target": 34962,
   "byteStride": 12
  },
  {
   "buffer": 0,
   "byteOffset": 2040,
   "byteLength": 2040,
   "target": 34962,
   "byteStride": 12
  },
  {
   "buffer": 0,
   "byteOffset": 4080,
   "byteLength": 2016,
   "target": 34963
  }
 ],
 "buffers": [
  {
   "byteLength": 6096,
   "uri": "data:application/octet-stream;base64,"
  }
 ],
 "accessors": [
  {
   "bufferView": 0,
   "componentType": 5126,
   "count": 170,
   "max": [
    0.949999988079071,
    1,
    1.100000023841858
   ],
   "min": [
    -0.949999988079071,
    -1,
    -0.9399999976158142
   ],
   "type": "VEC3"
  },
  {
   "bufferView": 1,
   "componentType": 5126,
   "count": 170,
   "max": [
    0.9664300084114075,
    1,
    0.9384346008300781
   ],
   "min": [
    -0.9665569067001343,
    -1,
    -0.9732853174209595
   ],
   "type": "VEC3"
  },
  {
   "bufferView": 2,
   "componentType": 5123,
   "count": 1008,
   "max": [
    169
   ],
   "min": [
    0
   ],
   "type": "SCALAR"
  }
 ],
 "materials": [
  {
   "pbrMetallicRoughness": {
    "metallicFactor": 0,
    "roughnessFactor": 0.9
   }
  }
 ],
 "meshes": [
  {
   "primitives": [
    {
     "mode": 4,
     "attributes": {
      "POSITION": 0,
      "NORMAL": 1
     },
     "indices": 2,
     "material": 0
    }
   ]
  }
 ]
}