{"asset":{"generator":"Khronos glTF Blender I/O v5.2.40","version":"2.0"},"scene":0,"scenes":[{"name":"Scene","nodes":[0]}],"nodes":[{"mesh":0,"name":"CHEST"}],"materials":[{"doubleSided":true,"name":"Material","pbrMetallicRoughness":{"baseColorFactor":[0.800000011920929,0.800000011920929,0.800000011920929,1],"metallicFactor":0,"roughnessFactor":0.5}}],"meshes":[{"name":"CHEST.003","primitives":[{"attributes":{"POSITION":0,"NORMAL":1,"TEXCOORD_0":2},"indices":3,"material":0}]}],"accessors":[{"bufferView":0,"componentType":5126,"count":42,"max":[0.16239389777183533,0.03267943859100342,0.09812948852777481],"min":[-0.16239389777183533,-0.1784743070602417,-0.15871791541576385],"type":"VEC3"},{"bufferView":1,"componentType":5126,"count":42,"type":"VEC3"},{"bufferView":2,"componentType":5126,"count":42,"type":"VEC2"},{"bufferView":3,"componentType":5123,"count":168,"type":"SCALAR"}],"bufferViews":[{"buffer":0,"byteLength":504,"byteOffset":0,"target":34962},{"buffer":0,"byteLength":504,"byteOffset":504,"target":34962},{"buffer":0,"byteLength":336,"byteOffset":1008,"target":34962},{"buffer":0,"byteLength":336,"byteOffset":1344,"target":34963}],"buffers":[{"byteLength":1680,"uri":"data:application/octet-stream;base64,"}]}