{"asset":{"generator":"Khronos glTF Blender I/O v5.2.40","version":"2.0"},"scene":0,"scenes":[{"name":"Scene","nodes":[0]}],"nodes":[{"mesh":0,"name":"LEFT_FOOT"}],"materials":[{"doubleSided":true,"name":"Material","pbrMetallicRoughness":{"baseColorFactor":[0.800000011920929,0.800000011920929,0.800000011920929,1],"metallicFactor":0,"roughnessFactor":0.5}},{"doubleSided":true,"name":"Material.001","pbrMetallicRoughness":{"baseColorFactor":[0.6794353723526001,0.04752415418624878,0.8000074625015259,1],"metallicFactor":0,"roughnessFactor":0.5}}],"meshes":[{"name":"LEFT_FOOT.003","primitives":[{"attributes":{"POSITION":0,"NORMAL":1,"TEXCOORD_0":2},"indices":3,"material":0},{"attributes":{"POSITION":4,"NORMAL":5,"TEXCOORD_0":6},"indices":7,"material":1}]}],"accessors":[{"bufferView":0,"componentType":5126,"count":51,"max":[0.0477328822016716,0.03613562881946564,0.09981660544872284],"min":[-0.050986915826797485,-0.1771184802055359,-0.05191957950592041],"type":"VEC3"},{"bufferView":1,"componentType":5126,"count":51,"type":"VEC3"},{"bufferView":2,"componentType":5126,"count":51,"type":"VEC2"},{"bufferView":3,"componentType":5123,"count":252,"type":"SCALAR"},{"bufferView":4,"componentType":5126,"count":135,"max":[0.040618471801280975,-0.14059388637542725,-0.009599611163139343],"min":[-0.04276582598686218,-0.18310439586639404,-0.048230625689029694],"type":"VEC3"},{"bufferView":5,"componentType":5126,"count":135,"type":"VEC3"},{"bufferView":6,"componentType":5126,"count":135,"type":"VEC2"},{"bufferView":7,"componentType":5123,"count":450,"type":"SCALAR"}],"bufferViews":[{"buffer":0,"byteLength":612,"byteOffset":0,"target":34962},{"buffer":0,"byteLength":612,"byteOffset":612,"target":34962},{"buffer":0,"byteLength":408,"byteOffset":1224,"target":34962},{"buffer":0,"byteLength":504,"byteOffset":1632,"target":34963},{"buffer":0,"byteLength":1620,"byteOffset":2136,"target":34962},{"buffer":0,"byteLength":1620,"byteOffset":3756,"target":34962},{"buffer":0,"byteLength":1080,"byteOffset":5376,"target":34962},{"buffer":0,"byteLength":900,"byteOffset":6456,"target":34963}],"buffers":[{"byteLength":7356,"uri":"data:application/octet-stream;base64,"}]}