{"asset":{"generator":"Khronos glTF Blender I/O v5.2.40","version":"2.0"},"scene":0,"scenes":[{"name":"Scene","nodes":[0]}],"nodes":[{"mesh":0,"name":"LEFT_HAND"}],"materials":[{"doubleSided":true,"name":"Material","pbrMetallicRoughness":{"baseColorFactor":[0.800000011920929,0.800000011920929,0.800000011920929,1],"metallicFactor":0,"roughnessFactor":0.5}},{"doubleSided":true,"name":"Material.001","pbrMetallicRoughness":{"baseColorFactor":[0.6794353723526001,0.04752415418624878,0.8000074625015259,1],"metallicFactor":0,"roughnessFactor":0.5}}],"meshes":[{"name":"LEFT_HAND.003","primitives":[{"attributes":{"POSITION":0,"NORMAL":1,"TEXCOORD_0":2},"indices":3,"material":0},{"attributes":{"POSITION":4,"NORMAL":5,"TEXCOORD_0":6},"indices":7,"material":1}]}],"accessors":[{"bufferView":0,"componentType":5126,"count":35,"max":[0.03906238079071045,-0.006693840026855469,0.05643051117658615],"min":[-0.03373253345489502,-0.142653226852417,-0.04997655749320984],"type":"VEC3"},{"bufferView":1,"componentType":5126,"count":35,"type":"VEC3"},{"bufferView":2,"componentType":5126,"count":35,"type":"VEC2"},{"bufferView":3,"componentType":5123,"count":168,"type":"SCALAR"},{"bufferView":4,"componentType":5126,"count":141,"max":[0.039731383323669434,-0.06576955318450928,0.05326266586780548],"min":[-0.010818243026733398,-0.15755796432495117,-0.061686113476753235],"type":"VEC3"},{"bufferView":5,"componentType":5126,"count":141,"type":"VEC3"},{"bufferView":6,"componentType":5126,"count":141,"type":"VEC2"},{"bufferView":7,"componentType":5123,"count":468,"type":"SCALAR"}],"bufferViews":[{"buffer":0,"byteLength":420,"byteOffset":0,"target":34962},{"buffer":0,"byteLength":420,"byteOffset":420,"target":34962},{"buffer":0,"byteLength":280,"byteOffset":840,"target":34962},{"buffer":0,"byteLength":336,"byteOffset":1120,"target":34963},{"buffer":0,"byteLength":1692,"byteOffset":1456,"target":34962},{"buffer":0,"byteLength":1692,"byteOffset":3148,"target":34962},{"buffer":0,"byteLength":1128,"byteOffset":4840,"target":34962},{"buffer":0,"byteLength":936,"byteOffset":5968,"target":34963}],"buffers":[{"byteLength":6904,"uri":"data:application/octet-stream;base64,"}]}