{"asset":{"generator":"Khronos glTF Blender I/O v5.2.40","version":"2.0"},"scene":0,"scenes":[{"name":"Scene","nodes":[0]}],"nodes":[{"mesh":0,"name":"HEAD"}],"materials":[{"doubleSided":true,"name":"Material","pbrMetallicRoughness":{"baseColorFactor":[0.800000011920929,0.800000011920929,0.800000011920929,1],"metallicFactor":0,"roughnessFactor":0.5}}],"meshes":[{"name":"HEAD.003","primitives":[{"attributes":{"POSITION":0,"NORMAL":1,"TEXCOORD_0":2},"indices":3,"material":0}]}],"accessors":[{"bufferView":0,"componentType":5126,"count":66,"max":[0.09060502797365189,0.10341203212738037,0.10322219133377075],"min":[-0.09060504287481308,-0.16150057315826416,-0.15263304114341736],"type":"VEC3"},{"bufferView":1,"componentType":5126,"count":66,"type":"VEC3"},{"bufferView":2,"componentType":5126,"count":66,"type":"VEC2"},{"bufferView":3,"componentType":5123,"count":360,"type":"SCALAR"}],"bufferViews":[{"buffer":0,"byteLength":792,"byteOffset":0,"target":34962},{"buffer":0,"byteLength":792,"byteOffset":792,"target":34962},{"buffer":0,"byteLength":528,"byteOffset":1584,"target":34962},{"buffer":0,"byteLength":720,"byteOffset":2112,"target":34963}],"buffers":[{"byteLength":2832,"uri":"data:application/octet-stream;base64,"}]}