{"asset":{"generator":"Khronos glTF Blender I/O v5.1.20","version":"2.0"},"buffers":[{"uri":"data:application/octet-stream;base64,","byteLength":1272}],"bufferViews":[{"buffer":0,"byteOffset":0,"byteLength":396,"byteStride":12,"target":34962},{"buffer":0,"byteOffset":396,"byteLength":396,"byteStride":12,"target":34962},{"buffer":0,"byteOffset":792,"byteLength":264,"byteStride":8,"target":34962},{"buffer":0,"byteOffset":1056,"byteLength":216,"target":34963}],"accessors":[{"bufferView":0,"byteOffset":0,"componentType":5126,"normalized":false,"count":33,"min":[-0.07063442468643188,-0.0793473944067955,-0.18936066329479218],"max":[0.06926518678665161,0.06055222451686859,-0.06820408999919891],"type":"VEC3"},{"bufferView":1,"byteOffset":0,"componentType":5126,"normalized":false,"count":33,"min":[-1,-1,-0.866019070148468],"max":[1,1,0.866019070148468],"type":"VEC3"},{"bufferView":2,"byteOffset":0,"componentType":5126,"normalized":false,"count":33,"min":[0,0],"max":[0.9999999403953552,1],"type":"VEC2"},{"bufferView":3,"byteOffset":0,"componentType":5123,"normalized":false,"count":108,"min":[0],"max":[32],"type":"SCALAR"}],"scene":0,"scenes":[{"nodes":[0],"name":"Scene"}],"nodes":[{"name":"LEFT_HIP","matrix":[2.3841850804728892e-7,1.0000001192092896,-5.960470872423684e-8,0,-4.172325418494438e-7,-1.1920928955078125e-7,-1,0,-1,2.9802325229866256e-7,3.576278118089249e-7,0,0,0.9478344321250916,-0.021257057785987854,1],"mesh":0}],"meshes":[{"primitives":[{"material":0,"mode":4,"attributes":{"POSITION":0,"NORMAL":1,"TEXCOORD_0":2},"indices":3}]}],"materials":[{"name":"Material.001","pbrMetallicRoughness":{"baseColorFactor":[0.6784313725490196,0.047058823529411764,0.8,1],"metallicFactor":0,"roughnessFactor":0.5},"emissiveFactor":[0,0,0],"alphaMode":"OPAQUE","doubleSided":true}],"extensions":{}}