{"asset":{"generator":"Khronos glTF Blender I/O v5.2.40","version":"2.0"},"scene":0,"scenes":[{"name":"Scene","nodes":[0]}],"nodes":[{"mesh":0,"name":"LEFT_INDEX_PROXIMAL"}],"materials":[{"doubleSided":true,"name":"Material","pbrMetallicRoughness":{"baseColorFactor":[0.800000011920929,0.800000011920929,0.800000011920929,1],"metallicFactor":0,"roughnessFactor":0.5}},{"doubleSided":true,"name":"Material.001","pbrMetallicRoughness":{"baseColorFactor":[0.6794353723526001,0.04752415418624878,0.8000074625015259,1],"metallicFactor":0,"roughnessFactor":0.5}}],"meshes":[{"name":"LEFT_INDEX_PROXIMAL.003","primitives":[{"attributes":{"POSITION":0,"NORMAL":1,"TEXCOORD_0":2},"indices":3,"material":0},{"attributes":{"POSITION":4,"NORMAL":5,"TEXCOORD_0":6},"indices":7,"material":1}]}],"accessors":[{"bufferView":0,"componentType":5126,"count":12,"max":[0.011642694473266602,-0.0020239949226379395,0.013013102114200592],"min":[-0.014423966407775879,-0.044952332973480225,-0.01134241372346878],"type":"VEC3"},{"bufferView":1,"componentType":5126,"count":12,"type":"VEC3"},{"bufferView":2,"componentType":5126,"count":12,"type":"VEC2"},{"bufferView":3,"componentType":5123,"count":30,"type":"SCALAR"},{"bufferView":4,"componentType":5126,"count":27,"max":[0.008196592330932617,-0.03504180908203125,0.01057421788573265],"min":[-0.010077714920043945,-0.058320045471191406,-0.010528195649385452],"type":"VEC3"},{"bufferView":5,"componentType":5126,"count":27,"type":"VEC3"},{"bufferView":6,"componentType":5126,"count":27,"type":"VEC2"},{"bufferView":7,"componentType":5123,"count":90,"type":"SCALAR"}],"bufferViews":[{"buffer":0,"byteLength":144,"byteOffset":0,"target":34962},{"buffer":0,"byteLength":144,"byteOffset":144,"target":34962},{"buffer":0,"byteLength":96,"byteOffset":288,"target":34962},{"buffer":0,"byteLength":60,"byteOffset":384,"target":34963},{"buffer":0,"byteLength":324,"byteOffset":444,"target":34962},{"buffer":0,"byteLength":324,"byteOffset":768,"target":34962},{"buffer":0,"byteLength":216,"byteOffset":1092,"target":34962},{"buffer":0,"byteLength":180,"byteOffset":1308,"target":34963}],"buffers":[{"byteLength":1488,"uri":"data:application/octet-stream;base64,"}]}