{"asset":{"generator":"Khronos glTF Blender I/O v5.2.40","version":"2.0"},"scene":0,"scenes":[{"name":"Scene","nodes":[0]}],"nodes":[{"mesh":0,"name":"LEFT_INDEX_DISTAL"}],"materials":[{"doubleSided":true,"name":"Material","pbrMetallicRoughness":{"baseColorFactor":[0.800000011920929,0.800000011920929,0.800000011920929,1],"metallicFactor":0,"roughnessFactor":0.5}}],"meshes":[{"name":"LEFT_INDEX_DISTAL.003","primitives":[{"attributes":{"POSITION":0,"NORMAL":1,"TEXCOORD_0":2},"indices":3,"material":0}]}],"accessors":[{"bufferView":0,"componentType":5126,"count":17,"max":[0.011752724647521973,-0.0034120678901672363,0.012429855763912201],"min":[-0.013345599174499512,-0.029417574405670166,-0.01144133135676384],"type":"VEC3"},{"bufferView":1,"componentType":5126,"count":17,"type":"VEC3"},{"bufferView":2,"componentType":5126,"count":17,"type":"VEC2"},{"bufferView":3,"componentType":5123,"count":45,"type":"SCALAR"}],"bufferViews":[{"buffer":0,"byteLength":204,"byteOffset":0,"target":34962},{"buffer":0,"byteLength":204,"byteOffset":204,"target":34962},{"buffer":0,"byteLength":136,"byteOffset":408,"target":34962},{"buffer":0,"byteLength":90,"byteOffset":544,"target":34963}],"buffers":[{"byteLength":636,"uri":"data:application/octet-stream;base64,"}]}