{"asset":{"generator":"Khronos glTF Blender I/O v5.2.40","version":"2.0"},"scene":0,"scenes":[{"name":"Scene","nodes":[0]}],"nodes":[{"mesh":0,"name":"LEFT_LITTLE_DISTAL"}],"materials":[{"doubleSided":true,"name":"Material","pbrMetallicRoughness":{"baseColorFactor":[0.800000011920929,0.800000011920929,0.800000011920929,1],"metallicFactor":0,"roughnessFactor":0.5}}],"meshes":[{"name":"LEFT_LITTLE_DISTAL.003","primitives":[{"attributes":{"POSITION":0,"NORMAL":1,"TEXCOORD_0":2},"indices":3,"material":0}]}],"accessors":[{"bufferView":0,"componentType":5126,"count":17,"max":[0.011591672897338867,-0.003887653350830078,0.012394875288009644],"min":[-0.013506650924682617,-0.029498159885406494,-0.011476308107376099],"type":"VEC3"},{"bufferView":1,"componentType":5126,"count":17,"type":"VEC3"},{"bufferView":2,"componentType":5126,"count":17,"type":"VEC2"},{"bufferView":3,"componentType":5123,"count":45,"type":"SCALAR"}],"bufferViews":[{"buffer":0,"byteLength":204,"byteOffset":0,"target":34962},{"buffer":0,"byteLength":204,"byteOffset":204,"target":34962},{"buffer":0,"byteLength":136,"byteOffset":408,"target":34962},{"buffer":0,"byteLength":90,"byteOffset":544,"target":34963}],"buffers":[{"byteLength":636,"uri":"data:application/octet-stream;base64,"}]}