{"asset":{"generator":"Khronos glTF Blender I/O v5.1.20","version":"2.0"},"scene":0,"scenes":[{"name":"Scene","nodes":[0]}],"nodes":[{"mesh":0,"name":"LEFT_LOWER_LEG","translation":[-0.12999995052814484,0.5510714054107666,-0.05143570154905319]}],"materials":[{"doubleSided":true,"name":"Material","pbrMetallicRoughness":{"baseColorFactor":[0.800000011920929,0.800000011920929,0.800000011920929,1],"metallicFactor":0,"roughnessFactor":0.5}},{"doubleSided":true,"name":"Material.001","pbrMetallicRoughness":{"baseColorFactor":[0.6794353723526001,0.04752415418624878,0.8000074625015259,1],"metallicFactor":0,"roughnessFactor":0.5}}],"meshes":[{"name":"LEFT_LOWER_LEG","primitives":[{"attributes":{"POSITION":0,"NORMAL":1,"TEXCOORD_0":2},"indices":3,"material":0},{"attributes":{"POSITION":4,"NORMAL":5,"TEXCOORD_0":6},"indices":7,"material":1}]}],"accessors":[{"bufferView":0,"componentType":5126,"count":36,"max":[0.07611604034900665,0.009586215019226074,0.10107386112213135],"min":[-0.06492161750793457,-0.4144309461116791,-0.05867872014641762],"type":"VEC3"},{"bufferView":1,"componentType":5126,"count":36,"type":"VEC3"},{"bufferView":2,"componentType":5126,"count":36,"type":"VEC2"},{"bufferView":3,"componentType":5123,"count":180,"type":"SCALAR"},{"bufferView":4,"componentType":5126,"count":27,"max":[0.030265236273407936,-0.31967949867248535,0.09161537885665894],"min":[-0.033888909965753555,-0.45281994342803955,0.017583390697836876],"type":"VEC3"},{"bufferView":5,"componentType":5126,"count":27,"type":"VEC3"},{"bufferView":6,"componentType":5126,"count":27,"type":"VEC2"},{"bufferView":7,"componentType":5123,"count":90,"type":"SCALAR"}],"bufferViews":[{"buffer":0,"byteLength":432,"byteOffset":0,"target":34962},{"buffer":0,"byteLength":432,"byteOffset":432,"target":34962},{"buffer":0,"byteLength":288,"byteOffset":864,"target":34962},{"buffer":0,"byteLength":360,"byteOffset":1152,"target":34963},{"buffer":0,"byteLength":324,"byteOffset":1512,"target":34962},{"buffer":0,"byteLength":324,"byteOffset":1836,"target":34962},{"buffer":0,"byteLength":216,"byteOffset":2160,"target":34962},{"buffer":0,"byteLength":180,"byteOffset":2376,"target":34963}],"buffers":[{"byteLength":2556,"uri":"data:application/octet-stream;base64,"}]}