{"asset":{"generator":"Khronos glTF Blender I/O v5.2.40","version":"2.0"},"scene":0,"scenes":[{"name":"Scene","nodes":[0]}],"nodes":[{"mesh":0,"name":"LEFT_LOWER_ARM"}],"materials":[{"doubleSided":true,"name":"Material","pbrMetallicRoughness":{"baseColorFactor":[0.800000011920929,0.800000011920929,0.800000011920929,1],"metallicFactor":0,"roughnessFactor":0.5}},{"doubleSided":true,"name":"Material.001","pbrMetallicRoughness":{"baseColorFactor":[0.6794353723526001,0.04752415418624878,0.8000074625015259,1],"metallicFactor":0,"roughnessFactor":0.5}}],"meshes":[{"name":"LEFT_LOWER_ARM.003","primitives":[{"attributes":{"POSITION":0,"NORMAL":1,"TEXCOORD_0":2},"indices":3,"material":0},{"attributes":{"POSITION":4,"NORMAL":5,"TEXCOORD_0":6},"indices":7,"material":1}]}],"accessors":[{"bufferView":0,"componentType":5126,"count":30,"max":[0.05236625671386719,0.01814153790473938,0.04802536964416504],"min":[-0.05494046211242676,-0.26065847277641296,-0.0570356547832489],"type":"VEC3"},{"bufferView":1,"componentType":5126,"count":30,"type":"VEC3"},{"bufferView":2,"componentType":5126,"count":30,"type":"VEC2"},{"bufferView":3,"componentType":5123,"count":144,"type":"SCALAR"},{"bufferView":4,"componentType":5126,"count":27,"max":[0.0242311954498291,-0.1863185465335846,0.02203088253736496],"min":[-0.028361797332763672,-0.2880437672138214,-0.03549928218126297],"type":"VEC3"},{"bufferView":5,"componentType":5126,"count":27,"type":"VEC3"},{"bufferView":6,"componentType":5126,"count":27,"type":"VEC2"},{"bufferView":7,"componentType":5123,"count":90,"type":"SCALAR"}],"bufferViews":[{"buffer":0,"byteLength":360,"byteOffset":0,"target":34962},{"buffer":0,"byteLength":360,"byteOffset":360,"target":34962},{"buffer":0,"byteLength":240,"byteOffset":720,"target":34962},{"buffer":0,"byteLength":288,"byteOffset":960,"target":34963},{"buffer":0,"byteLength":324,"byteOffset":1248,"target":34962},{"buffer":0,"byteLength":324,"byteOffset":1572,"target":34962},{"buffer":0,"byteLength":216,"byteOffset":1896,"target":34962},{"buffer":0,"byteLength":180,"byteOffset":2112,"target":34963}],"buffers":[{"byteLength":2292,"uri":"data:application/octet-stream;base64,"}]}