{"asset":{"generator":"Khronos glTF Blender I/O v5.2.40","version":"2.0"},"scene":0,"scenes":[{"name":"Scene","nodes":[0]}],"nodes":[{"mesh":0,"name":"LEFT_MIDDLE_TOE"}],"materials":[{"doubleSided":true,"name":"Material","pbrMetallicRoughness":{"baseColorFactor":[0.800000011920929,0.800000011920929,0.800000011920929,1],"metallicFactor":0,"roughnessFactor":0.5}}],"meshes":[{"name":"LEFT_MIDDLE_TOE.003","primitives":[{"attributes":{"POSITION":0,"NORMAL":1,"TEXCOORD_0":2},"indices":3,"material":0}]}],"accessors":[{"bufferView":0,"componentType":5126,"count":27,"max":[0.007916495203971863,-0.001218162477016449,0.009769916534423828],"min":[-0.010418906807899475,-0.03373268246650696,-0.01377248764038086],"type":"VEC3"},{"bufferView":1,"componentType":5126,"count":27,"type":"VEC3"},{"bufferView":2,"componentType":5126,"count":27,"type":"VEC2"},{"bufferView":3,"componentType":5123,"count":75,"type":"SCALAR"}],"bufferViews":[{"buffer":0,"byteLength":324,"byteOffset":0,"target":34962},{"buffer":0,"byteLength":324,"byteOffset":324,"target":34962},{"buffer":0,"byteLength":216,"byteOffset":648,"target":34962},{"buffer":0,"byteLength":150,"byteOffset":864,"target":34963}],"buffers":[{"byteLength":1016,"uri":"data:application/octet-stream;base64,"}]}