{"asset":{"generator":"Khronos glTF Blender I/O v5.2.40","version":"2.0"},"scene":0,"scenes":[{"name":"Scene","nodes":[0]}],"nodes":[{"mesh":0,"name":"LEFT_MIDDLE_DISTAL"}],"materials":[{"doubleSided":true,"name":"Material","pbrMetallicRoughness":{"baseColorFactor":[0.800000011920929,0.800000011920929,0.800000011920929,1],"metallicFactor":0,"roughnessFactor":0.5}}],"meshes":[{"name":"LEFT_MIDDLE_DISTAL.003","primitives":[{"attributes":{"POSITION":0,"NORMAL":1,"TEXCOORD_0":2},"indices":3,"material":0}]}],"accessors":[{"bufferView":0,"componentType":5126,"count":17,"max":[0.011870622634887695,-0.0032933950424194336,0.01239040121436119],"min":[-0.013227701187133789,-0.029496371746063232,-0.011480782181024551],"type":"VEC3"},{"bufferView":1,"componentType":5126,"count":17,"type":"VEC3"},{"bufferView":2,"componentType":5126,"count":17,"type":"VEC2"},{"bufferView":3,"componentType":5123,"count":45,"type":"SCALAR"}],"bufferViews":[{"buffer":0,"byteLength":204,"byteOffset":0,"target":34962},{"buffer":0,"byteLength":204,"byteOffset":204,"target":34962},{"buffer":0,"byteLength":136,"byteOffset":408,"target":34962},{"buffer":0,"byteLength":90,"byteOffset":544,"target":34963}],"buffers":[{"byteLength":636,"uri":"data:application/octet-stream;base64,"}]}