{"asset":{"generator":"Khronos glTF Blender I/O v5.2.40","version":"2.0"},"scene":0,"scenes":[{"name":"Scene","nodes":[0]}],"nodes":[{"mesh":0,"name":"NECK"}],"materials":[{"doubleSided":true,"name":"Material.001","pbrMetallicRoughness":{"baseColorFactor":[0.6794353723526001,0.04752415418624878,0.8000074625015259,1],"metallicFactor":0,"roughnessFactor":0.5}}],"meshes":[{"name":"NECK.003","primitives":[{"attributes":{"POSITION":0,"NORMAL":1,"TEXCOORD_0":2},"indices":3,"material":0}]}],"accessors":[{"bufferView":0,"componentType":5126,"count":21,"max":[0.04821563512086868,0.08336913585662842,0.0547889769077301],"min":[-0.048215653747320175,-0.09375143051147461,-0.05755608528852463],"type":"VEC3"},{"bufferView":1,"componentType":5126,"count":21,"type":"VEC3"},{"bufferView":2,"componentType":5126,"count":21,"type":"VEC2"},{"bufferView":3,"componentType":5123,"count":90,"type":"SCALAR"}],"bufferViews":[{"buffer":0,"byteLength":252,"byteOffset":0,"target":34962},{"buffer":0,"byteLength":252,"byteOffset":252,"target":34962},{"buffer":0,"byteLength":168,"byteOffset":504,"target":34962},{"buffer":0,"byteLength":180,"byteOffset":672,"target":34963}],"buffers":[{"byteLength":852,"uri":"data:application/octet-stream;base64,"}]}