{
 "asset": {
  "version": "2.0",
  "generator": "THREE.GLTFExporter"
 },
 "scenes": [
  {
   "nodes": [
    0
   ]
  }
 ],
 "scene": 0,
 "nodes": [
  {
   "name": "pelvis",
   "mesh": 0
  }
 ],
 "bufferViews": [
  {
   "buffer": 0,
   "byteOffset": 0,
   "byteLength": 1704,
   "target": 34962,
   "byteStride": 12
  },
  {
   "buffer": 0,
   "byteOffset": 1704,
   "byteLength": 1704,
   "target": 34962,
   "byteStride": 12
  },
  {
   "buffer": 0,
   "byteOffset": 3408,
   "byteLength": 1680,
   "target": 34963
  }
 ],
 "buffers": [
  {
   "byteLength": 5088,
   "uri": "data:application/octet-stream;base64,"
  }
 ],
 "accessors": [
  {
   "bufferView": 0,
   "componentType": 5126,
   "count": 142,
   "max": [
    1,
    1,
    0.8500000238418579
   ],
   "min": [
    -1,
    -1,
    -0.8500000238418579
   ],
   "type": "VEC3"
  },
  {
   "bufferView": 1,
   "componentType": 5126,
   "count": 142,
   "max": [
    0.9757359027862549,
    1,
    0.9911354184150696
   ],
   "min": [
    -0.9753630757331848,
    -1,
    -0.9904766082763672
   ],
   "type": "VEC3"
  },
  {
   "bufferView": 2,
   "componentType": 5123,
   "count": 840,
   "max": [
    141
   ],
   "min": [
    0
   ],
   "type": "SCALAR"
  }
 ],
 "materials": [
  {
   "pbrMetallicRoughness": {
    "metallicFactor": 0,
    "roughnessFactor": 0.9
   }
  }
 ],
 "meshes": [
  {
   "primitives": [
    {
     "mode": 4,
     "attributes": {
      "POSITION": 0,
      "NORMAL": 1
     },
     "indices": 2,
     "material": 0
    }
   ]
  }
 ]
}