{"asset":{"generator":"Khronos glTF Blender I/O v5.2.40","version":"2.0"},"scene":0,"scenes":[{"name":"Scene","nodes":[0]}],"nodes":[{"mesh":0,"name":"LEFT_RING_INTERMEDIATE"}],"materials":[{"doubleSided":true,"name":"Material","pbrMetallicRoughness":{"baseColorFactor":[0.800000011920929,0.800000011920929,0.800000011920929,1],"metallicFactor":0,"roughnessFactor":0.5}},{"doubleSided":true,"name":"Material.001","pbrMetallicRoughness":{"baseColorFactor":[0.6794353723526001,0.04752415418624878,0.8000074625015259,1],"metallicFactor":0,"roughnessFactor":0.5}}],"meshes":[{"name":"LEFT_RING_INTERMEDIATE.003","primitives":[{"attributes":{"POSITION":0,"NORMAL":1,"TEXCOORD_0":2},"indices":3,"material":0},{"attributes":{"POSITION":4,"NORMAL":5,"TEXCOORD_0":6},"indices":7,"material":1}]}],"accessors":[{"bufferView":0,"componentType":5126,"count":12,"max":[0.011923432350158691,-0.002923429012298584,0.012685991823673248],"min":[-0.01392209529876709,-0.023845911026000977,-0.011690877377986908],"type":"VEC3"},{"bufferView":1,"componentType":5126,"count":12,"type":"VEC3"},{"bufferView":2,"componentType":5126,"count":12,"type":"VEC2"},{"bufferView":3,"componentType":5123,"count":30,"type":"SCALAR"},{"bufferView":4,"componentType":5126,"count":27,"max":[0.008609414100646973,-0.016182541847229004,0.010622620582580566],"min":[-0.009923458099365234,-0.03760462999343872,-0.010635942220687866],"type":"VEC3"},{"bufferView":5,"componentType":5126,"count":27,"type":"VEC3"},{"bufferView":6,"componentType":5126,"count":27,"type":"VEC2"},{"bufferView":7,"componentType":5123,"count":90,"type":"SCALAR"}],"bufferViews":[{"buffer":0,"byteLength":144,"byteOffset":0,"target":34962},{"buffer":0,"byteLength":144,"byteOffset":144,"target":34962},{"buffer":0,"byteLength":96,"byteOffset":288,"target":34962},{"buffer":0,"byteLength":60,"byteOffset":384,"target":34963},{"buffer":0,"byteLength":324,"byteOffset":444,"target":34962},{"buffer":0,"byteLength":324,"byteOffset":768,"target":34962},{"buffer":0,"byteLength":216,"byteOffset":1092,"target":34962},{"buffer":0,"byteLength":180,"byteOffset":1308,"target":34963}],"buffers":[{"byteLength":1488,"uri":"data:application/octet-stream;base64,"}]}