{
 "asset": {
  "version": "2.0",
  "generator": "THREE.GLTFExporter"
 },
 "scenes": [
  {
   "nodes": [
    0
   ]
  }
 ],
 "scene": 0,
 "nodes": [
  {
   "name": "shoulder_cap",
   "mesh": 0
  }
 ],
 "bufferViews": [
  {
   "buffer": 0,
   "byteOffset": 0,
   "byteLength": 1368,
   "target": 34962,
   "byteStride": 12
  },
  {
   "buffer": 0,
   "byteOffset": 1368,
   "byteLength": 1368,
   "target": 34962,
   "byteStride": 12
  },
  {
   "buffer": 0,
   "byteOffset": 2736,
   "byteLength": 1344,
   "target": 34963
  }
 ],
 "buffers": [
  {
   "byteLength": 4080,
   "uri": "data:application/octet-stream;base64,"
  }
 ],
 "accessors": [
  {
   "bufferView": 0,
   "componentType": 5126,
   "count": 114,
   "max": [
    1,
    1,
    1.0499999523162842
   ],
   "min": [
    -1,
    -1,
    -0.949999988079071
   ],
   "type": "VEC3"
  },
  {
   "bufferView": 1,
   "componentType": 5126,
   "count": 114,
   "max": [
    0.9934963583946228,
    1,
    0.9927379488945007
   ],
   "min": [
    -0.9939475655555725,
    -1,
    -0.9981653690338135
   ],
   "type": "VEC3"
  },
  {
   "bufferView": 2,
   "componentType": 5123,
   "count": 672,
   "max": [
    113
   ],
   "min": [
    0
   ],
   "type": "SCALAR"
  }
 ],
 "materials": [
  {
   "pbrMetallicRoughness": {
    "metallicFactor": 0,
    "roughnessFactor": 0.9
   }
  }
 ],
 "meshes": [
  {
   "primitives": [
    {
     "mode": 4,
     "attributes": {
      "POSITION": 0,
      "NORMAL": 1
     },
     "indices": 2,
     "material": 0
    }
   ]
  }
 ]
}