{"asset":{"generator":"Khronos glTF Blender I/O v5.2.40","version":"2.0"},"scene":0,"scenes":[{"name":"Scene","nodes":[0]}],"nodes":[{"mesh":0,"name":"LEFT_SHOULDER"}],"materials":[{"doubleSided":true,"name":"Material","pbrMetallicRoughness":{"baseColorFactor":[0.800000011920929,0.800000011920929,0.800000011920929,1],"metallicFactor":0,"roughnessFactor":0.5}}],"meshes":[{"name":"LEFT_SHOULDER.003","primitives":[{"attributes":{"POSITION":0,"NORMAL":1,"TEXCOORD_0":2},"indices":3,"material":0}]}],"accessors":[{"bufferView":0,"componentType":5126,"count":18,"max":[0.053142428398132324,-0.12051907181739807,0.06712183356285095],"min":[-0.08667159080505371,-0.2336651086807251,-0.09401583671569824],"type":"VEC3"},{"bufferView":1,"componentType":5126,"count":18,"type":"VEC3"},{"bufferView":2,"componentType":5126,"count":18,"type":"VEC2"},{"bufferView":3,"componentType":5123,"count":60,"type":"SCALAR"}],"bufferViews":[{"buffer":0,"byteLength":216,"byteOffset":0,"target":34962},{"buffer":0,"byteLength":216,"byteOffset":216,"target":34962},{"buffer":0,"byteLength":144,"byteOffset":432,"target":34962},{"buffer":0,"byteLength":120,"byteOffset":576,"target":34963}],"buffers":[{"byteLength":696,"uri":"data:application/octet-stream;base64,"}]}