{
 "asset": {
  "version": "2.0",
  "generator": "THREE.GLTFExporter"
 },
 "scenes": [
  {
   "nodes": [
    0
   ]
  }
 ],
 "scene": 0,
 "nodes": [
  {
   "name": "spine",
   "mesh": 0
  }
 ],
 "bufferViews": [
  {
   "buffer": 0,
   "byteOffset": 0,
   "byteLength": 1032,
   "target": 34962,
   "byteStride": 12
  },
  {
   "buffer": 0,
   "byteOffset": 1032,
   "byteLength": 1032,
   "target": 34962,
   "byteStride": 12
  },
  {
   "buffer": 0,
   "byteOffset": 2064,
   "byteLength": 1008,
   "target": 34963
  }
 ],
 "buffers": [
  {
   "byteLength": 3072,
   "uri": "data:application/octet-stream;base64,"
  }
 ],
 "accessors": [
  {
   "bufferView": 0,
   "componentType": 5126,
   "count": 86,
   "max": [
    1,
    1,
    1
   ],
   "min": [
    -1,
    -1,
    -1
   ],
   "type": "VEC3"
  },
  {
   "bufferView": 1,
   "componentType": 5126,
   "count": 86,
   "max": [
    1,
    1,
    1
   ],
   "min": [
    -1,
    -1,
    -1
   ],
   "type": "VEC3"
  },
  {
   "bufferView": 2,
   "componentType": 5123,
   "count": 504,
   "max": [
    85
   ],
   "min": [
    0
   ],
   "type": "SCALAR"
  }
 ],
 "materials": [
  {
   "pbrMetallicRoughness": {
    "metallicFactor": 0,
    "roughnessFactor": 0.9
   }
  }
 ],
 "meshes": [
  {
   "primitives": [
    {
     "mode": 4,
     "attributes": {
      "POSITION": 0,
      "NORMAL": 1
     },
     "indices": 2,
     "material": 0
    }
   ]
  }
 ]
}