{"asset":{"generator":"Khronos glTF Blender I/O v5.2.40","version":"2.0"},"scene":0,"scenes":[{"name":"Scene","nodes":[0]}],"nodes":[{"mesh":0,"name":"LEFT_THUMB_PROXIMAL"}],"materials":[{"doubleSided":true,"name":"Material","pbrMetallicRoughness":{"baseColorFactor":[0.800000011920929,0.800000011920929,0.800000011920929,1],"metallicFactor":0,"roughnessFactor":0.5}},{"doubleSided":true,"name":"Material.001","pbrMetallicRoughness":{"baseColorFactor":[0.6794353723526001,0.04752415418624878,0.8000074625015259,1],"metallicFactor":0,"roughnessFactor":0.5}}],"meshes":[{"name":"LEFT_THUMB_PROXIMAL.003","primitives":[{"attributes":{"POSITION":0,"NORMAL":1,"TEXCOORD_0":2},"indices":3,"material":0},{"attributes":{"POSITION":4,"NORMAL":5,"TEXCOORD_0":6},"indices":7,"material":1}]}],"accessors":[{"bufferView":0,"componentType":5126,"count":12,"max":[0.012944698333740234,-0.004331309348344803,0.015352249145507812],"min":[-0.0157930850982666,-0.023526746779680252,-0.014041781425476074],"type":"VEC3"},{"bufferView":1,"componentType":5126,"count":12,"type":"VEC3"},{"bufferView":2,"componentType":5126,"count":12,"type":"VEC2"},{"bufferView":3,"componentType":5123,"count":30,"type":"SCALAR"},{"bufferView":4,"componentType":5126,"count":33,"max":[0.009857773780822754,-0.015585977584123611,0.012472569942474365],"min":[-0.011078834533691406,-0.03900601342320442,-0.010985255241394043],"type":"VEC3"},{"bufferView":5,"componentType":5126,"count":33,"type":"VEC3"},{"bufferView":6,"componentType":5126,"count":33,"type":"VEC2"},{"bufferView":7,"componentType":5123,"count":108,"type":"SCALAR"}],"bufferViews":[{"buffer":0,"byteLength":144,"byteOffset":0,"target":34962},{"buffer":0,"byteLength":144,"byteOffset":144,"target":34962},{"buffer":0,"byteLength":96,"byteOffset":288,"target":34962},{"buffer":0,"byteLength":60,"byteOffset":384,"target":34963},{"buffer":0,"byteLength":396,"byteOffset":444,"target":34962},{"buffer":0,"byteLength":396,"byteOffset":840,"target":34962},{"buffer":0,"byteLength":264,"byteOffset":1236,"target":34962},{"buffer":0,"byteLength":216,"byteOffset":1500,"target":34963}],"buffers":[{"byteLength":1716,"uri":"data:application/octet-stream;base64,"}]}