{"asset":{"generator":"Khronos glTF Blender I/O v5.2.40","version":"2.0"},"scene":0,"scenes":[{"name":"Scene","nodes":[0]}],"nodes":[{"mesh":0,"name":"LEFT_UPPER_ARM"}],"materials":[{"doubleSided":true,"name":"Material","pbrMetallicRoughness":{"baseColorFactor":[0.800000011920929,0.800000011920929,0.800000011920929,1],"metallicFactor":0,"roughnessFactor":0.5}},{"doubleSided":true,"name":"Material.001","pbrMetallicRoughness":{"baseColorFactor":[0.6794353723526001,0.04752415418624878,0.8000074625015259,1],"metallicFactor":0,"roughnessFactor":0.5}}],"meshes":[{"name":"LEFT_UPPER_ARM.003","primitives":[{"attributes":{"POSITION":0,"NORMAL":1,"TEXCOORD_0":2},"indices":3,"material":0},{"attributes":{"POSITION":4,"NORMAL":5,"TEXCOORD_0":6},"indices":7,"material":1}]}],"accessors":[{"bufferView":0,"componentType":5126,"count":24,"max":[0.06452202796936035,-0.011488780379295349,0.051390960812568665],"min":[-0.06096792221069336,-0.256223201751709,-0.05533255636692047],"type":"VEC3"},{"bufferView":1,"componentType":5126,"count":24,"type":"VEC3"},{"bufferView":2,"componentType":5126,"count":24,"type":"VEC2"},{"bufferView":3,"componentType":5123,"count":108,"type":"SCALAR"},{"bufferView":4,"componentType":5126,"count":56,"max":[0.03102576732635498,0.03510741889476776,0.03167056292295456],"min":[-0.03096902370452881,-0.28987324237823486,-0.040368370711803436],"type":"VEC3"},{"bufferView":5,"componentType":5126,"count":56,"type":"VEC3"},{"bufferView":6,"componentType":5126,"count":56,"type":"VEC2"},{"bufferView":7,"componentType":5123,"count":180,"type":"SCALAR"}],"bufferViews":[{"buffer":0,"byteLength":288,"byteOffset":0,"target":34962},{"buffer":0,"byteLength":288,"byteOffset":288,"target":34962},{"buffer":0,"byteLength":192,"byteOffset":576,"target":34962},{"buffer":0,"byteLength":216,"byteOffset":768,"target":34963},{"buffer":0,"byteLength":672,"byteOffset":984,"target":34962},{"buffer":0,"byteLength":672,"byteOffset":1656,"target":34962},{"buffer":0,"byteLength":448,"byteOffset":2328,"target":34962},{"buffer":0,"byteLength":360,"byteOffset":2776,"target":34963}],"buffers":[{"byteLength":3136,"uri":"data:application/octet-stream;base64,"}]}