{"asset":{"generator":"Khronos glTF Blender I/O v5.2.40","version":"2.0"},"scene":0,"scenes":[{"name":"Scene","nodes":[0]}],"nodes":[{"mesh":0,"name":"UPPER_CHEST"}],"materials":[{"doubleSided":true,"name":"Material","pbrMetallicRoughness":{"baseColorFactor":[0.800000011920929,0.800000011920929,0.800000011920929,1],"metallicFactor":0,"roughnessFactor":0.5}}],"meshes":[{"name":"UPPER_CHEST.003","primitives":[{"attributes":{"POSITION":0,"NORMAL":1,"TEXCOORD_0":2},"indices":3,"material":0}]}],"accessors":[{"bufferView":0,"componentType":5126,"count":48,"max":[0.1629437506198883,0.023250222206115723,0.12122997641563416],"min":[-0.1629437506198883,-0.20397484302520752,-0.15067359805107117],"type":"VEC3"},{"bufferView":1,"componentType":5126,"count":48,"type":"VEC3"},{"bufferView":2,"componentType":5126,"count":48,"type":"VEC2"},{"bufferView":3,"componentType":5123,"count":198,"type":"SCALAR"}],"bufferViews":[{"buffer":0,"byteLength":576,"byteOffset":0,"target":34962},{"buffer":0,"byteLength":576,"byteOffset":576,"target":34962},{"buffer":0,"byteLength":384,"byteOffset":1152,"target":34962},{"buffer":0,"byteLength":396,"byteOffset":1536,"target":34963}],"buffers":[{"byteLength":1932,"uri":"data:application/octet-stream;base64,"}]}