{"asset":{"generator":"Khronos glTF Blender I/O v5.1.20","version":"2.0"},"scene":0,"scenes":[{"name":"Scene","nodes":[0]}],"nodes":[{"mesh":0,"name":"LEFT_UPPER_LEG","translation":[-0.12999996542930603,0.9478344321250916,-0.02415754459798336]}],"materials":[{"doubleSided":true,"name":"Material","pbrMetallicRoughness":{"baseColorFactor":[0.800000011920929,0.800000011920929,0.800000011920929,1],"metallicFactor":0,"roughnessFactor":0.5}},{"doubleSided":true,"name":"Material.001","pbrMetallicRoughness":{"baseColorFactor":[0.6794353723526001,0.04752415418624878,0.8000074625015259,1],"metallicFactor":0,"roughnessFactor":0.5}}],"meshes":[{"name":"LEFT_UPPER_LEG","primitives":[{"attributes":{"POSITION":0,"NORMAL":1,"TEXCOORD_0":2},"indices":3,"material":0},{"attributes":{"POSITION":4,"NORMAL":5,"TEXCOORD_0":6},"indices":7,"material":1}]}],"accessors":[{"bufferView":0,"componentType":5126,"count":24,"max":[0.10059431195259094,0.024693608283996582,0.1054498702287674],"min":[-0.08981377631425858,-0.4042673707008362,-0.11710455268621445],"type":"VEC3"},{"bufferView":1,"componentType":5126,"count":24,"type":"VEC3"},{"bufferView":2,"componentType":5126,"count":24,"type":"VEC2"},{"bufferView":3,"componentType":5123,"count":108,"type":"SCALAR"},{"bufferView":4,"componentType":5126,"count":27,"max":[0.0414745956659317,-0.29317426681518555,0.024194015190005302],"min":[-0.040597379207611084,-0.43880003690719604,-0.06951940059661865],"type":"VEC3"},{"bufferView":5,"componentType":5126,"count":27,"type":"VEC3"},{"bufferView":6,"componentType":5126,"count":27,"type":"VEC2"},{"bufferView":7,"componentType":5123,"count":90,"type":"SCALAR"}],"bufferViews":[{"buffer":0,"byteLength":288,"byteOffset":0,"target":34962},{"buffer":0,"byteLength":288,"byteOffset":288,"target":34962},{"buffer":0,"byteLength":192,"byteOffset":576,"target":34962},{"buffer":0,"byteLength":216,"byteOffset":768,"target":34963},{"buffer":0,"byteLength":324,"byteOffset":984,"target":34962},{"buffer":0,"byteLength":324,"byteOffset":1308,"target":34962},{"buffer":0,"byteLength":216,"byteOffset":1632,"target":34962},{"buffer":0,"byteLength":180,"byteOffset":1848,"target":34963}],"buffers":[{"byteLength":2028,"uri":"data:application/octet-stream;base64,"}]}