{"asset":{"generator":"Khronos glTF Blender I/O v5.2.40","version":"2.0"},"scene":0,"scenes":[{"name":"Scene","nodes":[0]}],"nodes":[{"mesh":0,"name":"WAIST"}],"materials":[{"doubleSided":true,"name":"Material","pbrMetallicRoughness":{"baseColorFactor":[0.800000011920929,0.800000011920929,0.800000011920929,1],"metallicFactor":0,"roughnessFactor":0.5}}],"meshes":[{"name":"WAIST.003","primitives":[{"attributes":{"POSITION":0,"NORMAL":1,"TEXCOORD_0":2},"indices":3,"material":0}]}],"accessors":[{"bufferView":0,"componentType":5126,"count":50,"max":[0.13297085464000702,0.10085558891296387,0.08367732912302017],"min":[-0.13297085464000702,-0.19919806718826294,-0.1332402527332306],"type":"VEC3"},{"bufferView":1,"componentType":5126,"count":50,"type":"VEC3"},{"bufferView":2,"componentType":5126,"count":50,"type":"VEC2"},{"bufferView":3,"componentType":5123,"count":240,"type":"SCALAR"}],"bufferViews":[{"buffer":0,"byteLength":600,"byteOffset":0,"target":34962},{"buffer":0,"byteLength":600,"byteOffset":600,"target":34962},{"buffer":0,"byteLength":400,"byteOffset":1200,"target":34962},{"buffer":0,"byteLength":480,"byteOffset":1600,"target":34963}],"buffers":[{"byteLength":2080,"uri":"data:application/octet-stream;base64,"}]}