{
    "asset" : {
        "generator" : "Khronos glTF Blender I/O v3.4.50",
        "version" : "2.0"
    },
    "scene" : 0,
    "scenes" : [
        {
            "name" : "Scene",
            "nodes" : [
                0,
                1
            ]
        }
    ],
    "nodes" : [
        {
            "mesh" : 0,
            "name" : "MainCaseTop"
        },
        {
            "mesh" : 1,
            "name" : "MainCaseBottom"
        }
    ],
    "materials" : [
        {
            "doubleSided" : true,
            "name" : "Material.002",
            "pbrMetallicRoughness" : {
                "baseColorFactor" : [
                    0.32314273715019226,
                    0.014443378895521164,
                    1,
                    1
                ],
                "metallicFactor" : 0,
                "roughnessFactor" : 0.5
            }
        },
        {
            "doubleSided" : true,
            "name" : "Material.001",
            "pbrMetallicRoughness" : {
                "baseColorFactor" : [
                    0.32314273715019226,
                    0.014443378895521164,
                    1,
                    1
                ],
                "metallicFactor" : 0,
                "roughnessFactor" : 0.5
            }
        }
    ],
    "meshes" : [
        {
            "name" : "MainCaseTop.001",
            "primitives" : [
                {
                    "attributes" : {
                        "POSITION" : 0,
                        "NORMAL" : 1
                    },
                    "indices" : 2,
                    "material" : 0
                }
            ]
        },
        {
            "name" : "MainCaseBottom.001",
            "primitives" : [
                {
                    "attributes" : {
                        "POSITION" : 3,
                        "NORMAL" : 4
                    },
                    "indices" : 5,
                    "material" : 1
                }
            ]
        }
    ],
    "accessors" : [
        {
            "bufferView" : 0,
            "componentType" : 5126,
            "count" : 995,
            "max" : [
                30.490032196044922,
                8.70851993560791,
                21.486722946166992
            ],
            "min" : [
                -30.289447784423828,
                -6.577000141143799,
                -27.879425048828125
            ],
            "type" : "VEC3"
        },
        {
            "bufferView" : 1,
            "componentType" : 5126,
            "count" : 995,
            "type" : "VEC3"
        },
        {
            "bufferView" : 2,
            "componentType" : 5123,
            "count" : 1413,
            "type" : "SCALAR"
        },
        {
            "bufferView" : 3,
            "componentType" : 5126,
            "count" : 1278,
            "max" : [
                37.03547286987305,
                -6.572039604187012,
                21.455093383789062
            ],
            "min" : [
                -37.03071212768555,
                -15.186727523803711,
                -27.93698501586914
            ],
            "type" : "VEC3"
        },
        {
            "bufferView" : 4,
            "componentType" : 5126,
            "count" : 1278,
            "type" : "VEC3"
        },
        {
            "bufferView" : 5,
            "componentType" : 5123,
            "count" : 1650,
            "type" : "SCALAR"
        }
    ],
    "bufferViews" : [
        {
            "buffer" : 0,
            "byteLength" : 11940,
            "byteOffset" : 0,
            "target" : 34962
        },
        {
            "buffer" : 0,
            "byteLength" : 11940,
            "byteOffset" : 11940,
            "target" : 34962
        },
        {
            "buffer" : 0,
            "byteLength" : 2826,
            "byteOffset" : 23880,
            "target" : 34963
        },
        {
            "buffer" : 0,
            "byteLength" : 15336,
            "byteOffset" : 26708,
            "target" : 34962
        },
        {
            "buffer" : 0,
            "byteLength" : 15336,
            "byteOffset" : 42044,
            "target" : 34962
        },
        {
            "buffer" : 0,
            "byteLength" : 3300,
            "byteOffset" : 57380,
            "target" : 34963
        }
    ],
    "buffers" : [
        {
            "byteLength" : 60680,
            "uri" : "data:application/octet-stream;base64,"
        }
    ]
}
