{
    "asset" : {
        "generator" : "Khronos glTF Blender I/O v3.4.50",
        "version" : "2.0"
    },
    "scene" : 0,
    "scenes" : [
        {
            "name" : "Scene",
            "nodes" : [
                0
            ]
        }
    ],
    "nodes" : [
        {
            "mesh" : 0,
            "name" : "RemeshedCase"
        }
    ],
    "materials" : [
        {
            "doubleSided" : true,
            "name" : "Case",
            "pbrMetallicRoughness" : {
                "baseColorFactor" : [
                    0.32314273715019226,
                    0.014443378895521164,
                    1,
                    1
                ],
                "metallicFactor" : 0,
                "roughnessFactor" : 0.5
            }
        }
    ],
    "meshes" : [
        {
            "name" : "RemeshedCase",
            "primitives" : [
                {
                    "attributes" : {
                        "POSITION" : 0,
                        "TEXCOORD_0" : 1,
                        "NORMAL" : 2
                    },
                    "indices" : 3,
                    "material" : 0
                }
            ]
        }
    ],
    "accessors" : [
        {
            "bufferView" : 0,
            "componentType" : 5126,
            "count" : 748,
            "max" : [
                0.3704195022583008,
                0.11134736984968185,
                0.23180294036865234
            ],
            "min" : [
                -0.3704195022583008,
                -0.12710295617580414,
                -0.25865787267684937
            ],
            "type" : "VEC3"
        },
        {
            "bufferView" : 1,
            "componentType" : 5126,
            "count" : 748,
            "type" : "VEC2"
        },
        {
            "bufferView" : 2,
            "componentType" : 5126,
            "count" : 748,
            "type" : "VEC3"
        },
        {
            "bufferView" : 3,
            "componentType" : 5123,
            "count" : 2670,
            "type" : "SCALAR"
        }
    ],
    "bufferViews" : [
        {
            "buffer" : 0,
            "byteLength" : 8976,
            "byteOffset" : 0,
            "target" : 34962
        },
        {
            "buffer" : 0,
            "byteLength" : 5984,
            "byteOffset" : 8976,
            "target" : 34962
        },
        {
            "buffer" : 0,
            "byteLength" : 8976,
            "byteOffset" : 14960,
            "target" : 34962
        },
        {
            "buffer" : 0,
            "byteLength" : 5340,
            "byteOffset" : 23936,
            "target" : 34963
        }
    ],
    "buffers" : [
        {
            "byteLength" : 29276,
            "uri" : "data:application/octet-stream;base64,"
        }
    ]
}
